<?xml version="1.0" encoding="UTF-8"?>
<svg xmlns="http://www.w3.org/2000/svg" xmlns:xlink="http://www.w3.org/1999/xlink" width="22px" height="15px" viewBox="0 0 22 15" version="1.1">
<defs>
<clipPath id="clip1">
  <path d="M 11 7.5 L 22 7.5 L 22 15 Z M 11 7.5 L 11 15 L 0 15 Z M 11 7.5 L 0 7.5 L 0 0 Z M 11 7.5 L 11 0 L 22 0 Z M 11 7.5 "/>
</clipPath>
</defs>
<g id="surface1">
<rect x="0" y="0" width="22" height="15" style="fill:rgb(0%,14.117647%,49.019608%);fill-opacity:1;stroke:none;"/>
<path style="fill:none;stroke-width:6.932255;stroke-linecap:butt;stroke-linejoin:miter;stroke:rgb(100%,100%,100%);stroke-opacity:1;stroke-miterlimit:4;" d="M 0 0 L 60 40 M 60 0 L 0 40 " transform="matrix(0.366667,0,0,0.375,0,0)"/>
<g clip-path="url(#clip1)" clip-rule="nonzero">
<path style="fill:none;stroke-width:4;stroke-linecap:butt;stroke-linejoin:miter;stroke:rgb(81.176471%,7.843137%,16.862745%);stroke-opacity:1;stroke-miterlimit:4;" d="M 0 0 L 60 30.000001 M 60 0 L 0 30.000001 " transform="matrix(0.366667,0,0,0.5,0,0)"/>
</g>
<path style="fill:none;stroke-width:11.553759;stroke-linecap:butt;stroke-linejoin:miter;stroke:rgb(100%,100%,100%);stroke-opacity:1;stroke-miterlimit:4;" d="M 30 0 L 30 40 M 0 20 L 60 20 " transform="matrix(0.366667,0,0,0.375,0,0)"/>
<path style="fill:none;stroke-width:6.932255;stroke-linecap:butt;stroke-linejoin:miter;stroke:rgb(81.176471%,7.843137%,16.862745%);stroke-opacity:1;stroke-miterlimit:4;" d="M 30 0 L 30 40 M 0 20 L 60 20 " transform="matrix(0.366667,0,0,0.375,0,0)"/>
</g>
</svg>
