<?xml version="1.0" encoding="UTF-8"?>
<svg xmlns="http://www.w3.org/2000/svg" xmlns:xlink="http://www.w3.org/1999/xlink" width="23px" height="15px" viewBox="0 0 22 15" version="1.1">
<g id="surface1">
<rect x="0" y="0" width="22" height="15" style="fill:rgb(100%,0%,0%);fill-opacity:1;stroke:none;"/>
<path style=" stroke:none;fill-rule:nonzero;fill:rgb(0%,40%,0%);fill-opacity:1;" d="M 0 0 L 8.800781 0 L 8.800781 15 L 0 15 Z M 0 0 "/>
<path style="fill-rule:evenodd;fill:rgb(100%,100%,0%);fill-opacity:1;stroke-width:0.573;stroke-linecap:round;stroke-linejoin:round;stroke:rgb(0%,0%,0%);stroke-opacity:1;stroke-miterlimit:4;" d="M 318.21733 262.083333 C 288.068182 261.145833 149.46733 174.6875 148.508523 160.9375 L 156.178977 148.125 C 169.921875 168.125 311.612216 252.1875 325.461648 249.166667 L 318.21733 262.083333 " transform="matrix(0.0366667,0,0,0.0375,0,0)"/>
<path style="fill-rule:evenodd;fill:rgb(100%,100%,0%);fill-opacity:1;stroke-width:0.573;stroke-linecap:round;stroke-linejoin:round;stroke:rgb(0%,0%,0%);stroke-opacity:1;stroke-miterlimit:4;" d="M 154.580966 146.354167 C 151.917614 153.645833 190.696023 177.708333 237.464489 206.145833 C 284.232955 234.583333 324.609375 252.1875 327.59233 249.6875 C 327.698864 249.270833 328.977273 247.083333 328.870739 247.083333 C 328.338068 247.916667 326.953125 248.229167 324.822443 247.604167 C 312.25142 243.958333 279.225852 228.854167 238.423295 204.0625 C 197.727273 179.375 162.144886 156.5625 156.711648 146.875 C 156.285511 146.25 155.965909 145 156.072443 144.0625 L 155.965909 144.0625 L 154.794034 146.041667 Z M 318.963068 262.395833 C 318.430398 263.333333 317.471591 263.4375 315.660511 263.229167 C 304.367898 261.979167 270.06392 245.3125 229.474432 220.9375 C 182.27983 192.708333 143.288352 166.979167 147.549716 160.208333 L 148.721591 158.229167 L 148.934659 158.333333 C 145.099432 169.6875 225.852273 215.833333 230.646307 218.854167 C 277.308239 247.708333 316.725852 264.6875 320.241477 260.3125 Z M 318.963068 262.395833 " transform="matrix(0.0366667,0,0,0.0375,0,0)"/>
<path style="fill-rule:evenodd;fill:rgb(100%,100%,0%);fill-opacity:1;stroke-width:0.573;stroke-linecap:round;stroke-linejoin:round;stroke:rgb(0%,0%,0%);stroke-opacity:1;stroke-miterlimit:4;" d="M 240.127841 169.270833 C 270.383523 168.958333 307.670455 165.104167 329.190341 156.5625 L 324.609375 149.0625 C 311.825284 156.041667 274.325284 160.625 239.914773 161.354167 C 199.21875 160.9375 170.454545 157.1875 155.965909 147.5 L 151.598011 155.520833 C 178.125 166.770833 205.291193 169.166667 240.127841 169.270833 " transform="matrix(0.0366667,0,0,0.0375,0,0)"/>
<path style="fill-rule:evenodd;fill:rgb(100%,100%,0%);fill-opacity:1;stroke-width:0.573;stroke-linecap:round;stroke-linejoin:round;stroke:rgb(0%,0%,0%);stroke-opacity:1;stroke-miterlimit:4;" d="M 330.46875 156.666667 C 329.723011 157.916667 315.660511 162.708333 295.099432 166.25 C 281.036932 168.4375 262.819602 170.208333 240.021307 170.3125 C 218.394886 170.3125 200.710227 168.75 187.393466 166.979167 C 165.767045 163.541667 154.580966 158.854167 150.426136 157.1875 C 150.852273 156.354167 151.065341 155.833333 151.491477 155.104167 C 163.316761 159.791667 174.609375 162.708333 187.713068 164.6875 C 201.02983 166.458333 218.50142 168.020833 240.021307 168.020833 C 262.713068 168.020833 280.71733 166.041667 294.566761 163.958333 C 315.767045 160.520833 327.379261 156.145833 328.977273 154.166667 Z M 326.420455 149.0625 C 324.076705 150.9375 312.677557 155 292.542614 158.229167 C 279.119318 160.104167 262.073864 161.875 240.340909 161.875 C 219.566761 161.875 202.627841 160.520833 189.84375 158.645833 C 169.389205 155.9375 158.522727 151.145833 154.580966 149.6875 C 155.007102 149.0625 155.433239 148.4375 155.859375 147.708333 C 158.84233 149.270833 169.389205 153.541667 190.056818 156.458333 C 202.734375 158.229167 219.673295 159.583333 240.340909 159.583333 C 261.96733 159.583333 278.799716 157.8125 292.223011 155.833333 C 312.357955 153.125 323.224432 147.916667 324.928977 146.666667 Z M 326.420455 149.0625 " transform="matrix(0.0366667,0,0,0.0375,0,0)"/>
<path style="fill-rule:evenodd;fill:rgb(100%,100%,0%);fill-opacity:1;stroke-width:0.573;stroke-linecap:round;stroke-linejoin:round;stroke:rgb(0%,0%,0%);stroke-opacity:1;stroke-miterlimit:4;" d="M 140.838068 205.625 C 159.481534 215.625 200.816761 220.729167 239.914773 221.041667 C 275.497159 221.145833 321.839489 215.520833 339.204545 206.354167 L 338.671875 196.354167 C 333.238636 204.791667 283.59375 212.916667 239.488636 212.604167 C 195.383523 212.291667 154.474432 205.520833 140.838068 196.666667 L 140.838068 205.625 " transform="matrix(0.0366667,0,0,0.0375,0,0)"/>
<path style="fill-rule:evenodd;fill:rgb(100%,100%,0%);fill-opacity:1;stroke-width:0.573;stroke-linecap:round;stroke-linejoin:round;stroke:rgb(0%,0%,0%);stroke-opacity:1;stroke-miterlimit:4;" d="M 340.163352 204.270833 L 340.163352 206.5625 C 337.5 209.6875 321.200284 214.479167 300.639205 217.708333 C 285.085227 220.104167 264.737216 221.979167 239.382102 221.979167 C 215.305398 221.979167 196.129261 220.208333 181.321023 217.916667 C 157.776989 214.479167 142.649148 208.541667 139.666193 206.770833 L 139.666193 203.958333 C 148.721591 210 173.330966 214.375 181.640625 215.729167 C 196.34233 218.020833 215.518466 219.6875 239.382102 219.6875 C 264.630682 219.6875 284.872159 217.916667 300.319602 215.520833 C 315.021307 213.4375 336.008523 207.916667 340.163352 204.270833 Z M 340.163352 195.729167 L 340.163352 198.125 C 337.5 201.25 321.200284 205.9375 300.745739 209.270833 C 285.085227 211.666667 264.737216 213.4375 239.382102 213.4375 C 215.411932 213.4375 196.129261 211.770833 181.321023 209.479167 C 157.776989 206.041667 142.755682 200 139.666193 198.229167 L 139.666193 195.416667 C 148.721591 201.458333 173.330966 205.9375 181.640625 207.291667 C 196.448864 209.479167 215.518466 211.25 239.382102 211.25 C 264.630682 211.25 284.872159 209.375 300.319602 207.083333 C 315.021307 204.895833 336.008523 199.375 340.163352 195.729167 Z M 340.163352 195.729167 " transform="matrix(0.0366667,0,0,0.0375,0,0)"/>
<path style="fill-rule:evenodd;fill:rgb(100%,100%,0%);fill-opacity:1;stroke-width:0.573;stroke-linecap:round;stroke-linejoin:round;stroke:rgb(0%,0%,0%);stroke-opacity:1;stroke-miterlimit:4;" d="M 239.808239 260.3125 C 196.981534 260.104167 160.333807 248.645833 152.663352 246.770833 L 158.309659 255.625 C 171.946023 261.354167 207.741477 269.895833 240.234375 268.958333 C 272.727273 268.020833 301.065341 265.520833 321.09375 255.729167 L 326.953125 246.666667 C 313.316761 253.020833 266.867898 260.208333 239.808239 260.3125 " transform="matrix(0.0366667,0,0,0.0375,0,0)"/>
<path style="fill-rule:evenodd;fill:rgb(100%,100%,0%);fill-opacity:1;stroke-width:0.55;stroke-linecap:round;stroke-linejoin:round;stroke:rgb(0%,0%,0%);stroke-opacity:1;stroke-miterlimit:4;" d="M 323.330966 253.75 C 322.478693 255 321.62642 256.354167 320.667614 257.5 C 311.292614 260.833333 296.377841 264.375 290.09233 265.416667 C 277.308239 268.020833 257.492898 270 239.808239 270 C 201.988636 269.479167 170.880682 261.979167 156.285511 255.729167 L 155.113636 253.645833 L 155.326705 253.333333 L 157.350852 254.166667 C 183.34517 263.4375 212.428977 267.083333 240.021307 267.8125 C 257.599432 267.8125 275.177557 265.833333 289.346591 263.229167 C 311.079545 258.854167 319.921875 255.625 322.585227 254.0625 Z M 328.338068 245.416667 C 328.338068 245.520833 328.338068 245.520833 328.338068 245.520833 C 327.698864 246.5625 327.059659 247.708333 326.420455 248.75 C 321.413352 250.625 307.670455 254.583333 287.74858 257.395833 C 274.644886 259.166667 266.441761 260.9375 240.234375 261.458333 C 191.228693 260.208333 159.481534 250.625 152.024148 248.229167 L 150.852273 246.041667 C 179.296875 253.4375 208.274148 258.645833 240.234375 259.166667 C 264.204545 258.645833 274.431818 256.875 287.428977 255.104167 C 310.759943 251.5625 322.478693 247.708333 325.994318 246.5625 C 325.887784 246.5625 325.887784 246.458333 325.78125 246.354167 Z M 328.338068 245.416667 " transform="matrix(0.0366667,0,0,0.0375,0,0)"/>
<path style="fill-rule:evenodd;fill:rgb(100%,100%,0%);fill-opacity:1;stroke-width:0.573;stroke-linecap:round;stroke-linejoin:round;stroke:rgb(0%,0%,0%);stroke-opacity:1;stroke-miterlimit:4;" d="M 328.870739 197.708333 C 328.977273 225.9375 314.59517 251.145833 302.982955 262.291667 C 286.576705 278.020833 264.84375 288.229167 239.382102 288.645833 C 211.044034 289.166667 184.303977 270.625 177.059659 262.5 C 163.103693 246.666667 151.704545 226.458333 151.278409 199.270833 C 152.982955 168.645833 165.127841 147.1875 182.599432 132.5 C 200.071023 117.916667 223.295455 110.729167 242.684659 111.25 C 265.056818 111.875 291.15767 122.8125 309.161932 144.583333 C 320.987216 158.854167 326.100852 174.270833 328.870739 197.708333 Z M 239.59517 101.458333 C 294.140625 101.458333 338.991477 145.729167 338.991477 200.104167 C 338.991477 254.479167 294.140625 298.854167 239.59517 298.854167 C 185.15625 298.854167 140.731534 254.479167 140.731534 200.104167 C 140.731534 145.729167 185.15625 101.458333 239.59517 101.458333 " transform="matrix(0.0366667,0,0,0.0375,0,0)"/>
<path style="fill-rule:evenodd;fill:rgb(100%,100%,0%);fill-opacity:1;stroke-width:0.573;stroke-linecap:round;stroke-linejoin:round;stroke:rgb(0%,0%,0%);stroke-opacity:1;stroke-miterlimit:4;" d="M 239.914773 101.041667 C 294.460227 101.041667 338.884943 145.520833 338.884943 200.104167 C 338.884943 254.6875 294.460227 299.166667 239.914773 299.166667 C 185.369318 299.166667 140.944602 254.6875 140.944602 200.104167 C 140.944602 145.520833 185.369318 101.041667 239.914773 101.041667 Z M 143.075284 200.104167 C 143.075284 253.333333 186.860795 296.979167 239.914773 296.979167 C 292.96875 296.979167 336.754261 253.333333 336.754261 200.104167 C 336.754261 146.875 292.96875 103.229167 239.914773 103.229167 C 186.860795 103.229167 143.075284 146.875 143.075284 200.104167 Z M 143.075284 200.104167 " transform="matrix(0.0366667,0,0,0.0375,0,0)"/>
<path style="fill-rule:evenodd;fill:rgb(100%,100%,0%);fill-opacity:1;stroke-width:0.573;stroke-linecap:round;stroke-linejoin:round;stroke:rgb(0%,0%,0%);stroke-opacity:1;stroke-miterlimit:4;" d="M 240.021307 109.270833 C 289.772727 109.270833 330.681818 150.104167 330.681818 200 C 330.681818 249.895833 289.772727 290.729167 240.021307 290.729167 C 190.269886 290.729167 149.254261 249.895833 149.254261 200 C 149.254261 150.104167 190.269886 109.270833 240.021307 109.270833 Z M 151.491477 200 C 151.491477 248.75 191.441761 288.541667 240.021307 288.541667 C 288.494318 288.541667 328.551136 248.75 328.551136 200 C 328.551136 151.354167 288.494318 111.458333 240.021307 111.458333 C 191.441761 111.458333 151.491477 151.354167 151.491477 200 Z M 151.491477 200 " transform="matrix(0.0366667,0,0,0.0375,0,0)"/>
<path style="fill-rule:evenodd;fill:rgb(100%,100%,0%);fill-opacity:1;stroke-width:0.573;stroke-linecap:round;stroke-linejoin:round;stroke:rgb(0%,0%,0%);stroke-opacity:1;stroke-miterlimit:4;" d="M 243.963068 100.729167 L 235.546875 100.729167 L 235.546875 299.6875 L 244.069602 299.6875 Z M 243.963068 100.729167 " transform="matrix(0.0366667,0,0,0.0375,0,0)"/>
<path style="fill-rule:evenodd;fill:rgb(100%,100%,0%);fill-opacity:1;stroke-width:0.573;stroke-linecap:round;stroke-linejoin:round;stroke:rgb(0%,0%,0%);stroke-opacity:1;stroke-miterlimit:4;" d="M 243.110795 99.583333 L 245.241477 99.583333 L 245.348011 300.833333 L 243.110795 300.833333 Z M 234.694602 99.583333 L 236.931818 99.583333 L 236.931818 300.833333 L 234.694602 300.833333 Z M 234.694602 99.583333 " transform="matrix(0.0366667,0,0,0.0375,0,0)"/>
<path style="fill-rule:evenodd;fill:rgb(100%,100%,0%);fill-opacity:1;stroke-width:0.573;stroke-linecap:round;stroke-linejoin:round;stroke:rgb(0%,0%,0%);stroke-opacity:1;stroke-miterlimit:4;" d="M 338.991477 203.958333 L 338.991477 196.5625 L 333.025568 191.041667 L 299.041193 181.979167 L 250.035511 176.979167 L 191.015625 180 L 149.041193 190 L 140.518466 196.25 L 140.518466 203.645833 L 162.038352 193.958333 L 212.961648 186.041667 L 261.96733 186.041667 L 297.975852 190 L 323.011364 196.041667 Z M 338.991477 203.958333 " transform="matrix(0.0366667,0,0,0.0375,0,0)"/>
<path style="fill-rule:evenodd;fill:rgb(100%,100%,0%);fill-opacity:1;stroke-width:0.573;stroke-linecap:round;stroke-linejoin:round;stroke:rgb(0%,0%,0%);stroke-opacity:1;stroke-miterlimit:4;" d="M 239.914773 184.791667 C 263.352273 184.6875 286.044034 186.979167 304.048295 190.520833 C 322.585227 194.166667 335.68892 198.854167 340.163352 204.0625 L 340.163352 206.666667 C 334.730114 200.104167 317.151989 195.416667 303.622159 192.708333 C 285.724432 189.166667 263.245739 186.979167 239.914773 186.979167 C 215.411932 187.083333 192.613636 189.375 174.928977 192.8125 C 160.866477 195.625 142.009943 201.145833 139.666193 206.666667 L 139.666193 203.958333 C 140.944602 200.208333 155.007102 194.479167 174.609375 190.520833 C 192.400568 187.083333 215.305398 184.791667 239.914773 184.791667 Z M 239.914773 176.25 C 263.352273 176.25 286.044034 178.541667 304.048295 181.979167 C 322.585227 185.729167 335.68892 190.3125 340.163352 195.520833 L 340.163352 198.125 C 334.730114 191.666667 317.151989 186.875 303.622159 184.166667 C 285.724432 180.729167 263.245739 178.4375 239.914773 178.541667 C 215.411932 178.541667 192.72017 180.833333 175.035511 184.270833 C 161.505682 186.875 141.903409 192.708333 139.666193 198.125 L 139.666193 195.520833 C 140.944602 191.770833 155.22017 185.833333 174.609375 182.083333 C 192.400568 178.645833 215.305398 176.354167 239.914773 176.25 Z M 239.914773 176.25 " transform="matrix(0.0366667,0,0,0.0375,0,0)"/>
<path style="fill-rule:evenodd;fill:rgb(100%,100%,0%);fill-opacity:1;stroke-width:0.573;stroke-linecap:round;stroke-linejoin:round;stroke:rgb(0%,0%,0%);stroke-opacity:1;stroke-miterlimit:4;" d="M 239.488636 132.916667 C 276.349432 132.8125 308.522727 138.125 323.224432 145.625 L 328.551136 154.895833 C 315.767045 148.020833 281.036932 140.833333 239.488636 141.979167 C 205.71733 142.1875 169.495739 145.625 151.384943 155.3125 L 157.776989 144.6875 C 172.691761 136.875 207.741477 133.020833 239.488636 132.916667 " transform="matrix(0.0366667,0,0,0.0375,0,0)"/>
<path style="fill-rule:evenodd;fill:rgb(100%,100%,0%);fill-opacity:1;stroke-width:0.573;stroke-linecap:round;stroke-linejoin:round;stroke:rgb(0%,0%,0%);stroke-opacity:1;stroke-miterlimit:4;" d="M 240.021307 140.625 C 261.008523 140.520833 281.25 141.770833 297.443182 144.6875 C 312.464489 147.5 326.846591 151.666667 328.870739 153.958333 L 330.46875 156.770833 C 325.461648 153.4375 313.103693 149.895833 297.12358 146.875 C 281.143466 143.854167 260.795455 142.8125 239.914773 142.916667 C 216.264205 142.8125 197.833807 144.0625 181.960227 146.770833 C 165.234375 149.895833 153.622159 154.375 150.745739 156.5625 L 152.34375 153.541667 C 157.883523 150.729167 166.725852 147.291667 181.534091 144.583333 C 197.940341 141.666667 216.583807 140.729167 240.021307 140.625 Z M 239.914773 132.1875 C 260.049716 132.083333 279.971591 133.229167 295.419034 135.9375 C 307.670455 138.333333 319.708807 142.083333 324.076705 145.416667 L 326.420455 149.0625 C 322.478693 144.6875 307.56392 140.520833 294.460227 138.229167 C 279.119318 135.520833 260.049716 134.479167 239.914773 134.270833 C 218.821023 134.375 199.325284 135.625 184.197443 138.4375 C 169.815341 141.145833 160.440341 144.375 156.49858 146.979167 L 158.522727 143.854167 C 163.955966 141.041667 172.798295 138.333333 183.877841 136.25 C 199.112216 133.4375 218.714489 132.1875 239.914773 132.1875 Z M 239.914773 132.1875 " transform="matrix(0.0366667,0,0,0.0375,0,0)"/>
<path style="fill-rule:evenodd;fill:rgb(100%,100%,0%);fill-opacity:1;stroke-width:0.573;stroke-linecap:round;stroke-linejoin:round;stroke:rgb(0%,0%,0%);stroke-opacity:1;stroke-miterlimit:4;" d="M 289.133523 241.25 C 270.916193 237.8125 252.698864 237.395833 239.914773 237.5 C 178.551136 238.229167 158.735795 250.104167 156.285511 253.75 L 151.704545 246.25 C 167.365057 234.895833 200.710227 228.541667 240.234375 229.166667 C 260.795455 229.583333 278.480114 230.9375 293.394886 233.75 L 289.133523 241.25 " transform="matrix(0.0366667,0,0,0.0375,0,0)"/>
<path style="fill-rule:evenodd;fill:rgb(100%,100%,0%);fill-opacity:1;stroke-width:0.55;stroke-linecap:round;stroke-linejoin:round;stroke:rgb(0%,0%,0%);stroke-opacity:1;stroke-miterlimit:4;" d="M 239.59517 236.458333 C 256.640625 236.666667 273.473011 237.395833 289.666193 240.416667 L 288.387784 242.5 C 273.366477 239.6875 257.386364 238.645833 239.59517 238.75 C 217.009943 238.541667 194.105114 240.729167 174.076705 246.458333 C 167.791193 248.125 157.350852 252.1875 156.285511 255.520833 L 155.113636 253.645833 C 155.433239 251.666667 161.825284 247.604167 173.544034 244.270833 C 196.448864 237.708333 217.755682 236.5625 239.59517 236.458333 Z M 240.340909 227.8125 C 258.025568 228.229167 276.349432 229.0625 294.140625 232.5 L 292.862216 234.6875 C 276.882102 231.458333 261.541193 230.416667 240.447443 230.104167 C 217.755682 230.208333 193.572443 231.770833 171.732955 238.125 C 164.59517 240.208333 152.34375 244.6875 152.024148 248.229167 L 150.852273 246.145833 C 151.065341 242.916667 161.612216 238.75 171.200284 235.9375 C 193.252841 229.583333 217.43608 227.916667 240.340909 227.8125 Z M 240.340909 227.8125 " transform="matrix(0.0366667,0,0,0.0375,0,0)"/>
<path style="fill-rule:evenodd;fill:rgb(100%,100%,0%);fill-opacity:1;stroke-width:0.573;stroke-linecap:round;stroke-linejoin:round;stroke:rgb(0%,0%,0%);stroke-opacity:1;stroke-miterlimit:4;" d="M 327.59233 247.395833 L 320.241477 258.854167 L 299.041193 240 L 243.963068 203.020833 L 181.960227 168.958333 L 149.786932 158.020833 L 156.711648 145.3125 L 158.948864 143.958333 L 178.977273 148.958333 L 245.028409 183.020833 L 282.954545 206.979167 L 315.021307 230 L 328.018466 245 Z M 327.59233 247.395833 " transform="matrix(0.0366667,0,0,0.0375,0,0)"/>
<path style="fill-rule:evenodd;fill:rgb(100%,100%,0%);fill-opacity:1;stroke-width:0.573;stroke-linecap:round;stroke-linejoin:round;stroke:rgb(0%,0%,0%);stroke-opacity:1;stroke-miterlimit:4;" d="M 148.615057 158.333333 C 154.261364 154.479167 195.809659 172.916667 239.169034 199.166667 C 282.528409 225.416667 323.863636 255 320.134943 260.625 L 318.963068 262.5 L 318.323864 263.020833 C 318.430398 262.916667 319.069602 262.083333 318.323864 260.104167 C 316.40625 253.958333 287.109375 230.625 238.423295 201.145833 C 190.909091 172.8125 151.384943 155.833333 147.443182 160.729167 Z M 329.083807 247.1875 C 332.705966 240.208333 294.140625 211.145833 246.413352 182.916667 C 197.620739 155.3125 162.464489 138.958333 156.072443 143.854167 L 154.580966 146.458333 C 154.580966 146.5625 154.6875 146.25 155.007102 146.041667 C 156.178977 145 158.096591 145.104167 158.948864 145.104167 C 170.028409 145.208333 201.5625 159.791667 245.987216 185.208333 C 265.37642 196.5625 328.018466 236.666667 327.805398 248.020833 C 327.805398 248.958333 327.911932 249.166667 327.485795 249.6875 Z M 329.083807 247.1875 " transform="matrix(0.0366667,0,0,0.0375,0,0)"/>
<path style="fill-rule:nonzero;fill:rgb(100%,100%,100%);fill-opacity:1;stroke-width:0.67037;stroke-linecap:butt;stroke-linejoin:miter;stroke:rgb(0%,0%,0%);stroke-opacity:1;stroke-miterlimit:4;" d="M 180.575284 211.041667 C 180.575284 227.291667 187.286932 241.979167 198.046875 252.708333 C 208.913352 263.541667 223.615057 270.3125 239.914773 270.3125 C 256.214489 270.3125 271.129261 263.645833 281.889205 252.916667 C 292.649148 242.1875 299.360795 227.395833 299.360795 211.041667 L 299.360795 131.875 L 180.575284 131.770833 Z M 180.575284 211.041667 " transform="matrix(0.0366667,0,0,0.0375,0,0)"/>
<path style="fill-rule:nonzero;fill:rgb(100%,0%,0%);fill-opacity:1;stroke-width:0.50734;stroke-linecap:butt;stroke-linejoin:miter;stroke:rgb(0%,0%,0%);stroke-opacity:1;stroke-miterlimit:4;" d="M 182.8125 211.145833 C 182.8125 226.770833 189.31108 240.9375 199.644886 251.145833 C 209.978693 261.458333 224.254261 267.916667 239.808239 267.916667 C 255.46875 267.916667 269.744318 261.5625 280.078125 251.25 C 290.305398 241.041667 296.697443 226.875 296.697443 211.25 L 296.697443 134.375 L 182.919034 134.375 L 182.8125 211.145833 M 273.792614 157.395833 L 273.792614 211.458333 C 273.792614 212.8125 273.68608 214.375 273.579545 215.625 C 272.620739 223.4375 269.105114 230.104167 263.778409 235.416667 C 257.705966 241.5625 249.183239 245.3125 239.808239 245.3125 C 230.433239 245.3125 222.12358 241.354167 215.944602 235.208333 C 209.552557 228.854167 205.930398 220.208333 205.930398 211.25 L 205.930398 157.291667 Z M 273.792614 157.395833 " transform="matrix(0.0366667,0,0,0.0375,0,0)"/>
<path style=" stroke:none;fill-rule:nonzero;fill:rgb(100%,100%,0%);fill-opacity:1;" d="M 6.972656 5.792969 C 6.980469 5.585938 7.121094 5.535156 7.125 5.535156 C 7.125 5.535156 7.277344 5.585938 7.277344 5.792969 L 6.972656 5.792969 "/>
<path style="fill-rule:nonzero;fill:rgb(100%,100%,0%);fill-opacity:1;stroke-width:0.5;stroke-linecap:butt;stroke-linejoin:miter;stroke:rgb(0%,0%,0%);stroke-opacity:1;stroke-miterlimit:4;" d="M 186.860795 147.708333 L 186.115057 154.0625 L 190.269886 154.0625 C 190.269886 148.75 194.211648 147.916667 194.318182 147.916667 C 194.424716 147.916667 198.366477 149.0625 198.473011 154.0625 L 202.627841 154.0625 L 201.882102 147.604167 Z M 186.860795 147.708333 " transform="matrix(0.0366667,0,0,0.0375,0,0)"/>
<path style="fill-rule:nonzero;fill:rgb(100%,100%,0%);fill-opacity:1;stroke-width:0.5;stroke-linecap:butt;stroke-linejoin:miter;stroke:rgb(0%,0%,0%);stroke-opacity:1;stroke-miterlimit:4;" d="M 185.901989 154.0625 L 202.840909 154.0625 C 203.160511 154.0625 203.480114 154.375 203.480114 154.895833 C 203.480114 155.3125 203.160511 155.625 202.840909 155.625 L 185.901989 155.625 C 185.475852 155.625 185.15625 155.3125 185.15625 154.895833 C 185.15625 154.375 185.475852 154.0625 185.901989 154.0625 Z M 185.901989 154.0625 " transform="matrix(0.0366667,0,0,0.0375,0,0)"/>
<path style="fill-rule:nonzero;fill:rgb(100%,100%,0%);fill-opacity:1;stroke-width:0.5;stroke-linecap:butt;stroke-linejoin:miter;stroke:rgb(0%,0%,0%);stroke-opacity:1;stroke-miterlimit:4;" d="M 191.974432 154.0625 C 192.080966 150.729167 194.318182 149.791667 194.318182 149.791667 C 194.318182 149.791667 196.661932 150.729167 196.661932 154.0625 L 191.974432 154.0625 " transform="matrix(0.0366667,0,0,0.0375,0,0)"/>
<path style="fill-rule:nonzero;fill:rgb(100%,100%,0%);fill-opacity:1;stroke-width:0.5;stroke-linecap:butt;stroke-linejoin:miter;stroke:rgb(0%,0%,0%);stroke-opacity:1;stroke-miterlimit:4;" d="M 186.221591 145 L 202.414773 145 C 202.840909 145 203.053977 145.416667 203.053977 145.729167 C 203.053977 146.145833 202.840909 146.458333 202.414773 146.458333 L 186.221591 146.458333 C 185.901989 146.458333 185.582386 146.145833 185.582386 145.729167 C 185.582386 145.416667 185.901989 145 186.221591 145 Z M 186.221591 145 " transform="matrix(0.0366667,0,0,0.0375,0,0)"/>
<path style="fill-rule:nonzero;fill:rgb(100%,100%,0%);fill-opacity:1;stroke-width:0.5;stroke-linecap:butt;stroke-linejoin:miter;stroke:rgb(0%,0%,0%);stroke-opacity:1;stroke-miterlimit:4;" d="M 186.541193 146.458333 L 202.09517 146.458333 C 202.414773 146.458333 202.734375 146.770833 202.734375 147.1875 C 202.734375 147.604167 202.414773 147.916667 202.09517 147.916667 L 186.541193 147.916667 C 186.221591 147.916667 185.901989 147.604167 185.901989 147.1875 C 185.901989 146.770833 186.221591 146.458333 186.541193 146.458333 Z M 186.541193 146.458333 " transform="matrix(0.0366667,0,0,0.0375,0,0)"/>
<path style="fill-rule:nonzero;fill:rgb(100%,100%,0%);fill-opacity:1;stroke-width:0.5;stroke-linecap:butt;stroke-linejoin:miter;stroke:rgb(0%,0%,0%);stroke-opacity:1;stroke-miterlimit:4;" d="M 191.548295 135.833333 L 192.826705 135.833333 L 192.826705 136.770833 L 193.678977 136.770833 L 193.678977 135.833333 L 194.957386 135.833333 L 194.957386 136.770833 L 195.809659 136.770833 L 195.809659 135.833333 L 197.088068 135.833333 L 197.088068 137.916667 C 197.088068 138.229167 196.875 138.4375 196.555398 138.4375 L 192.1875 138.4375 C 191.867898 138.4375 191.548295 138.125 191.548295 137.916667 Z M 191.548295 135.833333 " transform="matrix(0.0366667,0,0,0.0375,0,0)"/>
<path style="fill-rule:nonzero;fill:rgb(100%,100%,0%);fill-opacity:1;stroke-width:0.5;stroke-linecap:butt;stroke-linejoin:miter;stroke:rgb(0%,0%,0%);stroke-opacity:1;stroke-miterlimit:4;" d="M 196.235795 138.541667 L 196.448864 145 L 192.1875 145 L 192.400568 138.541667 L 196.235795 138.541667 " transform="matrix(0.0366667,0,0,0.0375,0,0)"/>
<path style="fill-rule:nonzero;fill:rgb(100%,100%,0%);fill-opacity:1;stroke-width:0.5;stroke-linecap:butt;stroke-linejoin:miter;stroke:rgb(0%,0%,0%);stroke-opacity:1;stroke-miterlimit:4;" d="M 190.909091 141.5625 L 191.122159 145 L 186.96733 145 L 187.073864 141.5625 Z M 190.909091 141.5625 " transform="matrix(0.0366667,0,0,0.0375,0,0)"/>
<path style="fill-rule:nonzero;fill:rgb(100%,100%,0%);fill-opacity:1;stroke-width:0.5;stroke-linecap:butt;stroke-linejoin:miter;stroke:rgb(0%,0%,0%);stroke-opacity:1;stroke-miterlimit:4;" d="M 190.9535 141.5625 L 191.060034 145 L 186.905205 145 L 187.011739 141.5625 Z M 190.9535 141.5625 " transform="matrix(0.0366667,0,0,0.0375,0.388997,0)"/>
<path style="fill-rule:nonzero;fill:rgb(100%,100%,0%);fill-opacity:1;stroke-width:0.5;stroke-linecap:butt;stroke-linejoin:miter;stroke:rgb(0%,0%,0%);stroke-opacity:1;stroke-miterlimit:4;" d="M 186.328125 139.0625 L 187.5 139.0625 L 187.5 139.895833 L 188.352273 139.895833 L 188.352273 139.0625 L 189.630682 139.0625 L 189.630682 139.895833 L 190.482955 139.895833 L 190.482955 139.0625 L 191.761364 139.0625 L 191.761364 141.041667 C 191.761364 141.354167 191.441761 141.5625 191.228693 141.5625 L 186.860795 141.5625 C 186.541193 141.5625 186.328125 141.354167 186.328125 141.041667 Z M 186.328125 139.0625 " transform="matrix(0.0366667,0,0,0.0375,0,0)"/>
<path style="fill-rule:nonzero;fill:rgb(100%,100%,0%);fill-opacity:1;stroke-width:0.5;stroke-linecap:butt;stroke-linejoin:miter;stroke:rgb(0%,0%,0%);stroke-opacity:1;stroke-miterlimit:4;" d="M 186.266 139.0625 L 187.544409 139.0625 L 187.544409 139.895833 L 188.396682 139.895833 L 188.396682 139.0625 L 189.568557 139.0625 L 189.568557 139.895833 L 190.527364 139.895833 L 190.527364 139.0625 L 191.699239 139.0625 L 191.699239 141.041667 C 191.699239 141.354167 191.48617 141.5625 191.166568 141.5625 L 186.905205 141.5625 C 186.585602 141.5625 186.266 141.354167 186.266 141.041667 Z M 186.266 139.0625 " transform="matrix(0.0366667,0,0,0.0375,0.388997,0)"/>
<path style=" stroke:none;fill-rule:nonzero;fill:rgb(0%,0%,0%);fill-opacity:1;" d="M 7.109375 5.273438 C 7.109375 5.25 7.140625 5.25 7.140625 5.273438 L 7.140625 5.332031 L 7.109375 5.332031 L 7.109375 5.273438 "/>
<path style=" stroke:none;fill-rule:nonzero;fill:rgb(0%,0%,0%);fill-opacity:1;" d="M 6.914062 5.355469 C 6.914062 5.332031 6.945312 5.332031 6.945312 5.355469 L 6.945312 5.402344 L 6.914062 5.402344 L 6.914062 5.355469 "/>
<path style=" stroke:none;fill-rule:nonzero;fill:rgb(0%,0%,0%);fill-opacity:1;" d="M 7.304688 5.355469 C 7.304688 5.332031 7.335938 5.332031 7.335938 5.355469 L 7.335938 5.402344 L 7.304688 5.402344 L 7.304688 5.355469 "/>
<path style=" stroke:none;fill-rule:nonzero;fill:rgb(100%,100%,0%);fill-opacity:1;" d="M 6.972656 7.527344 C 6.980469 7.320312 7.121094 7.273438 7.125 7.269531 C 7.125 7.269531 7.277344 7.324219 7.277344 7.53125 L 6.972656 7.527344 "/>
<path style="fill-rule:nonzero;fill:rgb(100%,100%,0%);fill-opacity:1;stroke-width:0.5;stroke-linecap:butt;stroke-linejoin:miter;stroke:rgb(0%,0%,0%);stroke-opacity:1;stroke-miterlimit:4;" d="M 186.860795 147.638533 L 186.115057 153.9927 L 190.269886 153.9927 C 190.269886 148.784367 194.211648 147.951033 194.318182 147.951033 C 194.424716 147.951033 198.366477 149.096867 198.473011 153.9927 L 202.627841 153.9927 L 201.882102 147.638533 Z M 186.860795 147.638533 " transform="matrix(0.0366667,0,0,0.0375,0,1.736992)"/>
<path style="fill-rule:nonzero;fill:rgb(100%,100%,0%);fill-opacity:1;stroke-width:0.5;stroke-linecap:butt;stroke-linejoin:miter;stroke:rgb(0%,0%,0%);stroke-opacity:1;stroke-miterlimit:4;" d="M 185.901989 154.096867 L 202.840909 154.096867 C 203.160511 154.096867 203.480114 154.409367 203.480114 154.826033 C 203.480114 155.2427 203.160511 155.659367 202.840909 155.659367 L 185.901989 155.659367 C 185.475852 155.659367 185.15625 155.2427 185.15625 154.826033 C 185.15625 154.409367 185.475852 154.096867 185.901989 154.096867 Z M 185.901989 154.096867 " transform="matrix(0.0366667,0,0,0.0375,0,1.736992)"/>
<path style="fill-rule:nonzero;fill:rgb(100%,100%,0%);fill-opacity:1;stroke-width:0.5;stroke-linecap:butt;stroke-linejoin:miter;stroke:rgb(0%,0%,0%);stroke-opacity:1;stroke-miterlimit:4;" d="M 191.974432 153.9927 C 192.080966 150.763533 194.318182 149.826033 194.318182 149.826033 C 194.318182 149.826033 196.661932 150.763533 196.661932 153.9927 L 191.974432 153.9927 " transform="matrix(0.0366667,0,0,0.0375,0,1.736992)"/>
<path style="fill-rule:nonzero;fill:rgb(100%,100%,0%);fill-opacity:1;stroke-width:0.5;stroke-linecap:butt;stroke-linejoin:miter;stroke:rgb(0%,0%,0%);stroke-opacity:1;stroke-miterlimit:4;" d="M 186.221591 145.034367 L 202.414773 145.034367 C 202.840909 145.034367 203.053977 145.346867 203.053977 145.763533 C 203.053977 146.1802 202.840909 146.4927 202.414773 146.4927 L 186.221591 146.4927 C 185.901989 146.4927 185.582386 146.1802 185.582386 145.763533 C 185.582386 145.346867 185.901989 145.034367 186.221591 145.034367 Z M 186.221591 145.034367 " transform="matrix(0.0366667,0,0,0.0375,0,1.736992)"/>
<path style="fill-rule:nonzero;fill:rgb(100%,100%,0%);fill-opacity:1;stroke-width:0.5;stroke-linecap:butt;stroke-linejoin:miter;stroke:rgb(0%,0%,0%);stroke-opacity:1;stroke-miterlimit:4;" d="M 186.541193 146.4927 L 202.09517 146.4927 C 202.414773 146.4927 202.734375 146.8052 202.734375 147.221867 C 202.734375 147.534367 202.414773 147.846867 202.09517 147.846867 L 186.541193 147.846867 C 186.221591 147.846867 185.901989 147.534367 185.901989 147.221867 C 185.901989 146.8052 186.221591 146.4927 186.541193 146.4927 Z M 186.541193 146.4927 " transform="matrix(0.0366667,0,0,0.0375,0,1.736992)"/>
<path style="fill-rule:nonzero;fill:rgb(100%,100%,0%);fill-opacity:1;stroke-width:0.5;stroke-linecap:butt;stroke-linejoin:miter;stroke:rgb(0%,0%,0%);stroke-opacity:1;stroke-miterlimit:4;" d="M 191.548295 135.8677 L 192.826705 135.8677 L 192.826705 136.8052 L 193.678977 136.8052 L 193.678977 135.8677 L 194.957386 135.8677 L 194.957386 136.8052 L 195.809659 136.8052 L 195.809659 135.8677 L 197.088068 135.8677 L 197.088068 137.846867 C 197.088068 138.159367 196.875 138.3677 196.555398 138.3677 L 192.1875 138.3677 C 191.867898 138.3677 191.548295 138.159367 191.548295 137.846867 Z M 191.548295 135.8677 " transform="matrix(0.0366667,0,0,0.0375,0,1.736992)"/>
<path style="fill-rule:nonzero;fill:rgb(100%,100%,0%);fill-opacity:1;stroke-width:0.5;stroke-linecap:butt;stroke-linejoin:miter;stroke:rgb(0%,0%,0%);stroke-opacity:1;stroke-miterlimit:4;" d="M 196.235795 138.576033 L 196.448864 145.034367 L 192.1875 145.034367 L 192.400568 138.576033 L 196.235795 138.576033 " transform="matrix(0.0366667,0,0,0.0375,0,1.736992)"/>
<path style="fill-rule:nonzero;fill:rgb(100%,100%,0%);fill-opacity:1;stroke-width:0.5;stroke-linecap:butt;stroke-linejoin:miter;stroke:rgb(0%,0%,0%);stroke-opacity:1;stroke-miterlimit:4;" d="M 190.909091 141.596867 L 191.122159 145.034367 L 186.96733 145.034367 L 187.073864 141.596867 Z M 190.909091 141.596867 " transform="matrix(0.0366667,0,0,0.0375,0,1.736992)"/>
<path style="fill-rule:nonzero;fill:rgb(100%,100%,0%);fill-opacity:1;stroke-width:0.5;stroke-linecap:butt;stroke-linejoin:miter;stroke:rgb(0%,0%,0%);stroke-opacity:1;stroke-miterlimit:4;" d="M 190.9535 141.596867 L 191.060034 145.034367 L 186.905205 145.034367 L 187.011739 141.596867 Z M 190.9535 141.596867 " transform="matrix(0.0366667,0,0,0.0375,0.388997,1.736992)"/>
<path style="fill-rule:nonzero;fill:rgb(100%,100%,0%);fill-opacity:1;stroke-width:0.5;stroke-linecap:butt;stroke-linejoin:miter;stroke:rgb(0%,0%,0%);stroke-opacity:1;stroke-miterlimit:4;" d="M 186.328125 138.9927 L 187.5 138.9927 L 187.5 139.9302 L 188.352273 139.9302 L 188.352273 138.9927 L 189.630682 138.9927 L 189.630682 139.9302 L 190.482955 139.9302 L 190.482955 138.9927 L 191.761364 138.9927 L 191.761364 141.076033 C 191.761364 141.388533 191.441761 141.596867 191.228693 141.596867 L 186.860795 141.596867 C 186.541193 141.596867 186.328125 141.284367 186.328125 141.076033 Z M 186.328125 138.9927 " transform="matrix(0.0366667,0,0,0.0375,0,1.736992)"/>
<path style="fill-rule:nonzero;fill:rgb(100%,100%,0%);fill-opacity:1;stroke-width:0.5;stroke-linecap:butt;stroke-linejoin:miter;stroke:rgb(0%,0%,0%);stroke-opacity:1;stroke-miterlimit:4;" d="M 186.266 138.9927 L 187.544409 138.9927 L 187.544409 139.9302 L 188.396682 139.9302 L 188.396682 138.9927 L 189.568557 138.9927 L 189.568557 139.9302 L 190.527364 139.9302 L 190.527364 138.9927 L 191.699239 138.9927 L 191.699239 141.076033 C 191.699239 141.388533 191.48617 141.596867 191.166568 141.596867 L 186.905205 141.596867 C 186.585602 141.596867 186.266 141.284367 186.266 141.076033 Z M 186.266 138.9927 " transform="matrix(0.0366667,0,0,0.0375,0.388997,1.736992)"/>
<path style=" stroke:none;fill-rule:nonzero;fill:rgb(0%,0%,0%);fill-opacity:1;" d="M 7.109375 7.011719 C 7.109375 6.988281 7.140625 6.984375 7.140625 7.011719 L 7.140625 7.066406 L 7.109375 7.066406 L 7.109375 7.011719 "/>
<path style=" stroke:none;fill-rule:nonzero;fill:rgb(0%,0%,0%);fill-opacity:1;" d="M 6.914062 7.09375 C 6.914062 7.070312 6.945312 7.070312 6.945312 7.09375 L 6.945312 7.136719 L 6.914062 7.136719 L 6.914062 7.09375 "/>
<path style=" stroke:none;fill-rule:nonzero;fill:rgb(0%,0%,0%);fill-opacity:1;" d="M 7.304688 7.09375 C 7.304688 7.070312 7.335938 7.070312 7.335938 7.09375 L 7.335938 7.136719 L 7.304688 7.136719 L 7.304688 7.09375 "/>
<path style=" stroke:none;fill-rule:nonzero;fill:rgb(100%,100%,0%);fill-opacity:1;" d="M 7.636719 9.335938 C 7.496094 9.1875 7.5625 9.046875 7.5625 9.046875 C 7.5625 9.046875 7.710938 8.972656 7.851562 9.117188 L 7.636719 9.335938 "/>
<path style="fill-rule:nonzero;fill:rgb(100%,100%,0%);fill-opacity:1;stroke-width:0.5;stroke-linecap:butt;stroke-linejoin:miter;stroke:rgb(0%,0%,0%);stroke-opacity:1;stroke-miterlimit:4;" d="M 186.880847 147.689577 L 186.110268 154.009679 L 190.281739 154.071262 C 190.315453 148.783113 194.255986 147.872943 194.331051 147.948539 C 194.480032 147.950739 198.287665 149.12427 198.474551 154.043235 L 202.570957 154.029222 L 201.851725 147.687126 Z M 186.880847 147.689577 " transform="matrix(0.0258357,-0.0266098,0.0260185,0.0264228,-1.295853,10.316587)"/>
<path style="fill-rule:nonzero;fill:rgb(100%,100%,0%);fill-opacity:1;stroke-width:0.5;stroke-linecap:butt;stroke-linejoin:miter;stroke:rgb(0%,0%,0%);stroke-opacity:1;stroke-miterlimit:4;" d="M 185.88737 154.080877 L 202.795003 154.107018 C 203.166881 154.03802 203.393225 154.413801 203.396671 154.86078 C 203.474033 155.234362 203.104452 155.601345 202.806489 155.596947 L 185.824941 155.644202 C 185.526978 155.639804 185.151654 155.261823 185.223273 154.89044 C 185.219827 154.443462 185.440427 154.074278 185.88737 154.080877 Z M 185.88737 154.080877 " transform="matrix(0.0258357,-0.0266098,0.0260185,0.0264228,-1.295853,10.316587)"/>
<path style="fill-rule:nonzero;fill:rgb(100%,100%,0%);fill-opacity:1;stroke-width:0.5;stroke-linecap:butt;stroke-linejoin:miter;stroke:rgb(0%,0%,0%);stroke-opacity:1;stroke-miterlimit:4;" d="M 191.994447 154.022058 C 192.043093 150.670818 194.270918 149.809851 194.270918 149.809851 C 194.270918 149.809851 196.661508 150.738999 196.686778 154.016843 L 191.994447 154.022058 " transform="matrix(0.0258357,-0.0266098,0.0260185,0.0264228,-1.295853,10.316587)"/>
<path style="fill-rule:nonzero;fill:rgb(100%,100%,0%);fill-opacity:1;stroke-width:0.5;stroke-linecap:butt;stroke-linejoin:miter;stroke:rgb(0%,0%,0%);stroke-opacity:1;stroke-miterlimit:4;" d="M 186.190331 145.072304 L 202.426974 145.014051 C 202.800001 145.094046 203.10026 145.396431 203.028642 145.767813 C 203.106004 146.141395 202.810339 146.434982 202.43846 146.50398 L 186.200668 146.41324 C 185.82879 146.482238 185.602447 146.106457 185.60015 145.808471 C 185.596704 145.361492 185.892369 145.067905 186.190331 145.072304 Z M 186.190331 145.072304 " transform="matrix(0.0258357,-0.0266098,0.0260185,0.0264228,-1.295853,10.316587)"/>
<path style="fill-rule:nonzero;fill:rgb(100%,100%,0%);fill-opacity:1;stroke-width:0.5;stroke-linecap:butt;stroke-linejoin:miter;stroke:rgb(0%,0%,0%);stroke-opacity:1;stroke-miterlimit:4;" d="M 186.573696 146.493235 L 202.065433 146.423985 C 202.43846 146.50398 202.73872 146.806365 202.667101 147.177747 C 202.744463 147.551329 202.448798 147.844916 202.07692 147.913914 L 186.510117 147.907568 C 186.212155 147.903169 185.985812 147.527388 185.908449 147.153806 C 185.980068 146.782423 186.275733 146.488836 186.573696 146.493235 Z M 186.573696 146.493235 " transform="matrix(0.0258357,-0.0266098,0.0260185,0.0264228,-1.295853,10.316587)"/>
<path style="fill-rule:nonzero;fill:rgb(100%,100%,0%);fill-opacity:1;stroke-width:0.5;stroke-linecap:butt;stroke-linejoin:miter;stroke:rgb(0%,0%,0%);stroke-opacity:1;stroke-miterlimit:4;" d="M 191.556351 135.840525 L 192.7482 135.85812 L 192.755092 136.752077 L 193.648979 136.765273 L 193.642087 135.871316 L 194.982917 135.89111 L 194.989809 136.785068 L 195.80863 136.722668 L 195.876803 135.904307 L 197.142568 135.848505 L 197.083584 137.85881 C 197.085882 138.156795 196.864133 138.376986 196.566171 138.372587 L 192.171803 138.382202 C 191.87384 138.377803 191.574729 138.224411 191.572432 137.926425 Z M 191.556351 135.840525 " transform="matrix(0.0258357,-0.0266098,0.0260185,0.0264228,-1.295853,10.316587)"/>
<path style="fill-rule:nonzero;fill:rgb(100%,100%,0%);fill-opacity:1;stroke-width:0.5;stroke-linecap:butt;stroke-linejoin:miter;stroke:rgb(0%,0%,0%);stroke-opacity:1;stroke-miterlimit:4;" d="M 196.195441 138.590578 L 196.468878 145.075069 L 192.148426 145.011286 L 192.470913 138.535593 L 196.195441 138.590578 " transform="matrix(0.0258357,-0.0266098,0.0260185,0.0264228,-1.295853,10.316587)"/>
<path style="fill-rule:nonzero;fill:rgb(100%,100%,0%);fill-opacity:1;stroke-width:0.5;stroke-linecap:butt;stroke-linejoin:miter;stroke:rgb(0%,0%,0%);stroke-opacity:1;stroke-miterlimit:4;" d="M 190.930159 141.566854 L 191.031642 145.069287 L 186.935236 145.083301 L 187.05665 141.50967 Z M 190.930159 141.566854 " transform="matrix(0.0258357,-0.0266098,0.0260185,0.0264228,-1.295853,10.316587)"/>
<path style="fill-rule:nonzero;fill:rgb(100%,100%,0%);fill-opacity:1;stroke-width:0.5;stroke-linecap:butt;stroke-linejoin:miter;stroke:rgb(0%,0%,0%);stroke-opacity:1;stroke-miterlimit:4;" d="M 190.897669 141.574018 L 191.073068 145.003054 L 186.976662 145.017068 L 187.099225 141.59243 Z M 190.897669 141.574018 " transform="matrix(0.0258357,-0.0266098,0.0260185,0.0264228,-1.021763,10.034283)"/>
<path style="fill-rule:nonzero;fill:rgb(100%,100%,0%);fill-opacity:1;stroke-width:0.5;stroke-linecap:butt;stroke-linejoin:miter;stroke:rgb(0%,0%,0%);stroke-opacity:1;stroke-miterlimit:4;" d="M 186.367283 139.04139 L 187.484067 138.983389 L 187.490958 139.877346 L 188.384845 139.890543 L 188.377953 138.996585 L 189.569802 139.01418 L 189.576694 139.908138 L 190.470581 139.921334 L 190.463689 139.027377 L 191.729454 138.971575 L 191.745535 141.057476 C 191.747832 141.355462 191.451018 141.500056 191.228121 141.571253 L 186.833753 141.580868 C 186.535791 141.576469 186.310596 141.34968 186.308299 141.051695 Z M 186.367283 139.04139 " transform="matrix(0.0258357,-0.0266098,0.0260185,0.0264228,-1.295853,10.316587)"/>
<path style="fill-rule:nonzero;fill:rgb(100%,100%,0%);fill-opacity:1;stroke-width:0.5;stroke-linecap:butt;stroke-linejoin:miter;stroke:rgb(0%,0%,0%);stroke-opacity:1;stroke-miterlimit:4;" d="M 186.334792 139.048554 L 187.526641 139.066149 L 187.458468 139.88451 L 188.352355 139.897706 L 188.345463 139.003749 L 189.537312 139.021344 L 189.544204 139.915301 L 190.43809 139.928498 L 190.431199 139.03454 L 191.696964 138.978739 L 191.713045 141.064639 C 191.715342 141.362625 191.493593 141.582815 191.195631 141.578417 L 186.875179 141.514634 C 186.577217 141.510236 186.278106 141.356844 186.275808 141.058858 Z M 186.334792 139.048554 " transform="matrix(0.0258357,-0.0266098,0.0260185,0.0264228,-1.021763,10.034283)"/>
<path style=" stroke:none;fill-rule:nonzero;fill:rgb(0%,0%,0%);fill-opacity:1;" d="M 7.371094 8.871094 C 7.355469 8.855469 7.378906 8.832031 7.394531 8.847656 L 7.433594 8.890625 L 7.414062 8.914062 L 7.371094 8.871094 "/>
<path style=" stroke:none;fill-rule:nonzero;fill:rgb(0%,0%,0%);fill-opacity:1;" d="M 7.292969 9.074219 C 7.277344 9.058594 7.296875 9.035156 7.3125 9.050781 L 7.34375 9.082031 L 7.324219 9.105469 L 7.292969 9.074219 "/>
<path style=" stroke:none;fill-rule:nonzero;fill:rgb(0%,0%,0%);fill-opacity:1;" d="M 7.566406 8.789062 C 7.550781 8.773438 7.574219 8.75 7.589844 8.769531 L 7.621094 8.800781 L 7.597656 8.820312 L 7.566406 8.789062 "/>
<path style=" stroke:none;fill-rule:nonzero;fill:rgb(100%,100%,0%);fill-opacity:1;" d="M 8.648438 5.792969 C 8.65625 5.585938 8.796875 5.535156 8.800781 5.535156 C 8.800781 5.535156 8.953125 5.585938 8.953125 5.792969 L 8.648438 5.792969 "/>
<path style="fill-rule:nonzero;fill:rgb(100%,100%,0%);fill-opacity:1;stroke-width:0.5;stroke-linecap:butt;stroke-linejoin:miter;stroke:rgb(0%,0%,0%);stroke-opacity:1;stroke-miterlimit:4;" d="M 186.85012 147.708333 L 186.104382 154.0625 L 190.259211 154.0625 C 190.259211 148.75 194.200973 147.916667 194.307507 147.916667 C 194.414041 147.916667 198.355802 149.0625 198.462336 154.0625 L 202.617166 154.0625 L 201.871427 147.604167 Z M 186.85012 147.708333 " transform="matrix(0.0366667,0,0,0.0375,1.676173,0)"/>
<path style="fill-rule:nonzero;fill:rgb(100%,100%,0%);fill-opacity:1;stroke-width:0.5;stroke-linecap:butt;stroke-linejoin:miter;stroke:rgb(0%,0%,0%);stroke-opacity:1;stroke-miterlimit:4;" d="M 185.891314 154.0625 L 202.830234 154.0625 C 203.149836 154.0625 203.469439 154.375 203.469439 154.895833 C 203.469439 155.3125 203.149836 155.625 202.830234 155.625 L 185.891314 155.625 C 185.465177 155.625 185.252109 155.3125 185.252109 154.895833 C 185.252109 154.375 185.465177 154.0625 185.891314 154.0625 Z M 185.891314 154.0625 " transform="matrix(0.0366667,0,0,0.0375,1.676173,0)"/>
<path style="fill-rule:nonzero;fill:rgb(100%,100%,0%);fill-opacity:1;stroke-width:0.5;stroke-linecap:butt;stroke-linejoin:miter;stroke:rgb(0%,0%,0%);stroke-opacity:1;stroke-miterlimit:4;" d="M 191.963757 154.0625 C 192.070291 150.729167 194.307507 149.791667 194.307507 149.791667 C 194.307507 149.791667 196.651257 150.729167 196.651257 154.0625 L 191.963757 154.0625 " transform="matrix(0.0366667,0,0,0.0375,1.676173,0)"/>
<path style="fill-rule:nonzero;fill:rgb(100%,100%,0%);fill-opacity:1;stroke-width:0.5;stroke-linecap:butt;stroke-linejoin:miter;stroke:rgb(0%,0%,0%);stroke-opacity:1;stroke-miterlimit:4;" d="M 186.210916 145 L 202.404098 145 C 202.830234 145 203.043302 145.416667 203.043302 145.729167 C 203.043302 146.145833 202.830234 146.458333 202.404098 146.458333 L 186.210916 146.458333 C 185.891314 146.458333 185.571711 146.145833 185.571711 145.729167 C 185.571711 145.416667 185.891314 145 186.210916 145 Z M 186.210916 145 " transform="matrix(0.0366667,0,0,0.0375,1.676173,0)"/>
<path style="fill-rule:nonzero;fill:rgb(100%,100%,0%);fill-opacity:1;stroke-width:0.5;stroke-linecap:butt;stroke-linejoin:miter;stroke:rgb(0%,0%,0%);stroke-opacity:1;stroke-miterlimit:4;" d="M 186.530518 146.458333 L 202.084495 146.458333 C 202.404098 146.458333 202.7237 146.770833 202.7237 147.1875 C 202.7237 147.604167 202.404098 147.916667 202.084495 147.916667 L 186.530518 147.916667 C 186.210916 147.916667 185.997848 147.604167 185.997848 147.1875 C 185.997848 146.770833 186.210916 146.458333 186.530518 146.458333 Z M 186.530518 146.458333 " transform="matrix(0.0366667,0,0,0.0375,1.676173,0)"/>
<path style="fill-rule:nonzero;fill:rgb(100%,100%,0%);fill-opacity:1;stroke-width:0.5;stroke-linecap:butt;stroke-linejoin:miter;stroke:rgb(0%,0%,0%);stroke-opacity:1;stroke-miterlimit:4;" d="M 191.53762 135.833333 L 192.81603 135.833333 L 192.81603 136.770833 L 193.668302 136.770833 L 193.668302 135.833333 L 194.946711 135.833333 L 194.946711 136.770833 L 195.798984 136.770833 L 195.798984 135.833333 L 197.077393 135.833333 L 197.077393 137.916667 C 197.077393 138.229167 196.864325 138.4375 196.544723 138.4375 L 192.176825 138.4375 C 191.857223 138.4375 191.53762 138.125 191.53762 137.916667 Z M 191.53762 135.833333 " transform="matrix(0.0366667,0,0,0.0375,1.676173,0)"/>
<path style="fill-rule:nonzero;fill:rgb(100%,100%,0%);fill-opacity:1;stroke-width:0.5;stroke-linecap:butt;stroke-linejoin:miter;stroke:rgb(0%,0%,0%);stroke-opacity:1;stroke-miterlimit:4;" d="M 196.22512 138.541667 L 196.438189 145 L 192.176825 145 L 192.496427 138.541667 L 196.22512 138.541667 " transform="matrix(0.0366667,0,0,0.0375,1.676173,0)"/>
<path style="fill-rule:nonzero;fill:rgb(100%,100%,0%);fill-opacity:1;stroke-width:0.5;stroke-linecap:butt;stroke-linejoin:miter;stroke:rgb(0%,0%,0%);stroke-opacity:1;stroke-miterlimit:4;" d="M 190.898416 141.5625 L 191.111484 145 L 186.956655 145 L 187.063189 141.5625 Z M 190.898416 141.5625 " transform="matrix(0.0366667,0,0,0.0375,1.676173,0)"/>
<path style="fill-rule:nonzero;fill:rgb(100%,100%,0%);fill-opacity:1;stroke-width:0.5;stroke-linecap:butt;stroke-linejoin:miter;stroke:rgb(0%,0%,0%);stroke-opacity:1;stroke-miterlimit:4;" d="M 190.942825 141.5625 L 191.049359 145 L 186.89453 145 L 187.107598 141.5625 Z M 190.942825 141.5625 " transform="matrix(0.0366667,0,0,0.0375,2.065169,0)"/>
<path style="fill-rule:nonzero;fill:rgb(100%,100%,0%);fill-opacity:1;stroke-width:0.5;stroke-linecap:butt;stroke-linejoin:miter;stroke:rgb(0%,0%,0%);stroke-opacity:1;stroke-miterlimit:4;" d="M 186.31745 139.0625 L 187.489325 139.0625 L 187.489325 139.895833 L 188.341598 139.895833 L 188.341598 139.0625 L 189.620007 139.0625 L 189.620007 139.895833 L 190.47228 139.895833 L 190.47228 139.0625 L 191.750689 139.0625 L 191.750689 141.041667 C 191.750689 141.354167 191.431086 141.5625 191.218018 141.5625 L 186.85012 141.5625 C 186.530518 141.5625 186.31745 141.354167 186.31745 141.041667 Z M 186.31745 139.0625 " transform="matrix(0.0366667,0,0,0.0375,1.676173,0)"/>
<path style="fill-rule:nonzero;fill:rgb(100%,100%,0%);fill-opacity:1;stroke-width:0.5;stroke-linecap:butt;stroke-linejoin:miter;stroke:rgb(0%,0%,0%);stroke-opacity:1;stroke-miterlimit:4;" d="M 186.255325 139.0625 L 187.533734 139.0625 L 187.533734 139.895833 L 188.386007 139.895833 L 188.386007 139.0625 L 189.557882 139.0625 L 189.557882 139.895833 L 190.516689 139.895833 L 190.516689 139.0625 L 191.688564 139.0625 L 191.688564 141.041667 C 191.688564 141.354167 191.475495 141.5625 191.155893 141.5625 L 186.89453 141.5625 C 186.574927 141.5625 186.255325 141.354167 186.255325 141.041667 Z M 186.255325 139.0625 " transform="matrix(0.0366667,0,0,0.0375,2.065169,0)"/>
<path style=" stroke:none;fill-rule:nonzero;fill:rgb(0%,0%,0%);fill-opacity:1;" d="M 8.785156 5.273438 C 8.785156 5.25 8.816406 5.25 8.816406 5.273438 L 8.816406 5.332031 L 8.785156 5.332031 L 8.785156 5.273438 "/>
<path style=" stroke:none;fill-rule:nonzero;fill:rgb(0%,0%,0%);fill-opacity:1;" d="M 8.589844 5.355469 C 8.589844 5.332031 8.621094 5.332031 8.621094 5.355469 L 8.621094 5.402344 L 8.589844 5.402344 L 8.589844 5.355469 "/>
<path style=" stroke:none;fill-rule:nonzero;fill:rgb(0%,0%,0%);fill-opacity:1;" d="M 8.980469 5.355469 C 8.980469 5.332031 9.011719 5.332031 9.011719 5.355469 L 9.011719 5.402344 L 8.980469 5.402344 L 8.980469 5.355469 "/>
<path style=" stroke:none;fill-rule:nonzero;fill:rgb(100%,100%,0%);fill-opacity:1;" d="M 10.617188 5.792969 C 10.613281 5.585938 10.46875 5.535156 10.46875 5.535156 C 10.46875 5.535156 10.3125 5.585938 10.316406 5.792969 L 10.617188 5.792969 "/>
<path style="fill-rule:nonzero;fill:rgb(100%,100%,0%);fill-opacity:1;stroke-width:0.5;stroke-linecap:butt;stroke-linejoin:miter;stroke:rgb(0%,0%,0%);stroke-opacity:1;stroke-miterlimit:4;" d="M 186.8232 147.708333 L 186.077461 154.0625 L 190.232291 154.0625 C 190.338825 148.75 194.280586 147.916667 194.38712 147.916667 C 194.38712 147.916667 198.328882 149.0625 198.435416 154.0625 L 202.590245 154.0625 L 201.844507 147.604167 Z M 186.8232 147.708333 " transform="matrix(-0.0366667,0,0,0.0375,17.592371,0)"/>
<path style="fill-rule:nonzero;fill:rgb(100%,100%,0%);fill-opacity:1;stroke-width:0.5;stroke-linecap:butt;stroke-linejoin:miter;stroke:rgb(0%,0%,0%);stroke-opacity:1;stroke-miterlimit:4;" d="M 185.864393 154.0625 L 202.803314 154.0625 C 203.122916 154.0625 203.442518 154.375 203.442518 154.895833 C 203.442518 155.3125 203.122916 155.625 202.803314 155.625 L 185.864393 155.625 C 185.544791 155.625 185.225189 155.3125 185.225189 154.895833 C 185.225189 154.375 185.544791 154.0625 185.864393 154.0625 Z M 185.864393 154.0625 " transform="matrix(-0.0366667,0,0,0.0375,17.592371,0)"/>
<path style="fill-rule:nonzero;fill:rgb(100%,100%,0%);fill-opacity:1;stroke-width:0.5;stroke-linecap:butt;stroke-linejoin:miter;stroke:rgb(0%,0%,0%);stroke-opacity:1;stroke-miterlimit:4;" d="M 192.04337 154.0625 C 192.04337 150.729167 194.280586 149.791667 194.280586 149.791667 C 194.280586 149.791667 196.624336 150.729167 196.624336 154.0625 L 192.04337 154.0625 " transform="matrix(-0.0366667,0,0,0.0375,17.592371,0)"/>
<path style="fill-rule:nonzero;fill:rgb(100%,100%,0%);fill-opacity:1;stroke-width:0.5;stroke-linecap:butt;stroke-linejoin:miter;stroke:rgb(0%,0%,0%);stroke-opacity:1;stroke-miterlimit:4;" d="M 186.183995 145 L 202.483711 145 C 202.803314 145 203.122916 145.416667 203.122916 145.729167 C 203.122916 146.145833 202.803314 146.458333 202.483711 146.458333 L 186.183995 146.458333 C 185.864393 146.458333 185.544791 146.145833 185.544791 145.729167 C 185.544791 145.416667 185.864393 145 186.183995 145 Z M 186.183995 145 " transform="matrix(-0.0366667,0,0,0.0375,17.592371,0)"/>
<path style="fill-rule:nonzero;fill:rgb(100%,100%,0%);fill-opacity:1;stroke-width:0.5;stroke-linecap:butt;stroke-linejoin:miter;stroke:rgb(0%,0%,0%);stroke-opacity:1;stroke-miterlimit:4;" d="M 186.503598 146.458333 L 202.057575 146.458333 C 202.377177 146.458333 202.69678 146.770833 202.69678 147.1875 C 202.69678 147.604167 202.377177 147.916667 202.057575 147.916667 L 186.503598 147.916667 C 186.183995 147.916667 185.970927 147.604167 185.970927 147.1875 C 185.970927 146.770833 186.183995 146.458333 186.503598 146.458333 Z M 186.503598 146.458333 " transform="matrix(-0.0366667,0,0,0.0375,17.592371,0)"/>
<path style="fill-rule:nonzero;fill:rgb(100%,100%,0%);fill-opacity:1;stroke-width:0.5;stroke-linecap:butt;stroke-linejoin:miter;stroke:rgb(0%,0%,0%);stroke-opacity:1;stroke-miterlimit:4;" d="M 191.617234 135.833333 L 192.789109 135.833333 L 192.789109 136.770833 L 193.641382 136.770833 L 193.641382 135.833333 L 194.919791 135.833333 L 194.919791 136.770833 L 195.878598 136.770833 L 195.878598 135.833333 L 197.157007 135.833333 L 197.050473 137.916667 C 197.050473 138.229167 196.837405 138.4375 196.517802 138.4375 L 192.149905 138.4375 C 191.830302 138.4375 191.617234 138.125 191.617234 137.916667 Z M 191.617234 135.833333 " transform="matrix(-0.0366667,0,0,0.0375,17.592371,0)"/>
<path style="fill-rule:nonzero;fill:rgb(100%,100%,0%);fill-opacity:1;stroke-width:0.5;stroke-linecap:butt;stroke-linejoin:miter;stroke:rgb(0%,0%,0%);stroke-opacity:1;stroke-miterlimit:4;" d="M 196.1982 138.541667 L 196.517802 145 L 192.149905 145 L 192.469507 138.541667 L 196.1982 138.541667 " transform="matrix(-0.0366667,0,0,0.0375,17.592371,0)"/>
<path style="fill-rule:nonzero;fill:rgb(100%,100%,0%);fill-opacity:1;stroke-width:0.5;stroke-linecap:butt;stroke-linejoin:miter;stroke:rgb(0%,0%,0%);stroke-opacity:1;stroke-miterlimit:4;" d="M 190.97803 141.5625 L 191.084564 145 L 186.929734 145 L 187.036268 141.5625 Z M 190.97803 141.5625 " transform="matrix(-0.0366667,0,0,0.0375,17.592371,0)"/>
<path style="fill-rule:nonzero;fill:rgb(100%,100%,0%);fill-opacity:1;stroke-width:0.5;stroke-linecap:butt;stroke-linejoin:miter;stroke:rgb(0%,0%,0%);stroke-opacity:1;stroke-miterlimit:4;" d="M 190.915905 141.5625 L 191.022439 145 L 186.974143 145 L 187.080677 141.5625 Z M 190.915905 141.5625 " transform="matrix(-0.0366667,0,0,0.0375,17.203375,0)"/>
<path style="fill-rule:nonzero;fill:rgb(100%,100%,0%);fill-opacity:1;stroke-width:0.5;stroke-linecap:butt;stroke-linejoin:miter;stroke:rgb(0%,0%,0%);stroke-opacity:1;stroke-miterlimit:4;" d="M 186.29053 139.0625 L 187.462405 139.0625 L 187.462405 139.895833 L 188.421211 139.895833 L 188.421211 139.0625 L 189.593086 139.0625 L 189.593086 139.895833 L 190.445359 139.895833 L 190.445359 139.0625 L 191.723768 139.0625 L 191.723768 141.041667 C 191.723768 141.354167 191.5107 141.5625 191.191098 141.5625 L 186.8232 141.5625 C 186.610132 141.5625 186.29053 141.354167 186.29053 141.041667 Z M 186.29053 139.0625 " transform="matrix(-0.0366667,0,0,0.0375,17.592371,0)"/>
<path style="fill-rule:nonzero;fill:rgb(100%,100%,0%);fill-opacity:1;stroke-width:0.5;stroke-linecap:butt;stroke-linejoin:miter;stroke:rgb(0%,0%,0%);stroke-opacity:1;stroke-miterlimit:4;" d="M 186.334939 139.0625 L 187.506814 139.0625 L 187.506814 139.895833 L 188.359086 139.895833 L 188.359086 139.0625 L 189.637495 139.0625 L 189.637495 139.895833 L 190.489768 139.895833 L 190.489768 139.0625 L 191.768177 139.0625 L 191.661643 141.041667 C 191.661643 141.354167 191.448575 141.5625 191.128973 141.5625 L 186.867609 141.5625 C 186.548007 141.5625 186.334939 141.354167 186.334939 141.041667 Z M 186.334939 139.0625 " transform="matrix(-0.0366667,0,0,0.0375,17.203375,0)"/>
<path style=" stroke:none;fill-rule:nonzero;fill:rgb(0%,0%,0%);fill-opacity:1;" d="M 10.484375 5.273438 C 10.484375 5.25 10.449219 5.25 10.449219 5.273438 L 10.449219 5.332031 L 10.484375 5.332031 L 10.484375 5.273438 "/>
<path style=" stroke:none;fill-rule:nonzero;fill:rgb(0%,0%,0%);fill-opacity:1;" d="M 10.679688 5.355469 C 10.679688 5.332031 10.648438 5.332031 10.648438 5.355469 L 10.648438 5.402344 L 10.679688 5.402344 L 10.679688 5.355469 "/>
<path style=" stroke:none;fill-rule:nonzero;fill:rgb(0%,0%,0%);fill-opacity:1;" d="M 10.289062 5.355469 C 10.289062 5.332031 10.257812 5.332031 10.257812 5.355469 L 10.257812 5.402344 L 10.289062 5.402344 L 10.289062 5.355469 "/>
<path style=" stroke:none;fill-rule:nonzero;fill:rgb(100%,100%,0%);fill-opacity:1;" d="M 10.617188 7.527344 C 10.613281 7.320312 10.46875 7.273438 10.46875 7.269531 C 10.46875 7.269531 10.3125 7.324219 10.316406 7.53125 L 10.617188 7.527344 "/>
<path style="fill-rule:nonzero;fill:rgb(100%,100%,0%);fill-opacity:1;stroke-width:0.5;stroke-linecap:butt;stroke-linejoin:miter;stroke:rgb(0%,0%,0%);stroke-opacity:1;stroke-miterlimit:4;" d="M 186.8232 147.638533 L 186.077461 153.9927 L 190.232291 153.9927 C 190.338825 148.784367 194.280586 147.951033 194.38712 147.951033 C 194.38712 147.951033 198.328882 149.096867 198.435416 153.9927 L 202.590245 153.9927 L 201.844507 147.638533 Z M 186.8232 147.638533 " transform="matrix(-0.0366667,0,0,0.0375,17.592371,1.736992)"/>
<path style="fill-rule:nonzero;fill:rgb(100%,100%,0%);fill-opacity:1;stroke-width:0.5;stroke-linecap:butt;stroke-linejoin:miter;stroke:rgb(0%,0%,0%);stroke-opacity:1;stroke-miterlimit:4;" d="M 185.864393 154.096867 L 202.803314 154.096867 C 203.122916 154.096867 203.442518 154.409367 203.442518 154.826033 C 203.442518 155.2427 203.122916 155.659367 202.803314 155.659367 L 185.864393 155.659367 C 185.544791 155.659367 185.225189 155.2427 185.225189 154.826033 C 185.225189 154.409367 185.544791 154.096867 185.864393 154.096867 Z M 185.864393 154.096867 " transform="matrix(-0.0366667,0,0,0.0375,17.592371,1.736992)"/>
<path style="fill-rule:nonzero;fill:rgb(100%,100%,0%);fill-opacity:1;stroke-width:0.5;stroke-linecap:butt;stroke-linejoin:miter;stroke:rgb(0%,0%,0%);stroke-opacity:1;stroke-miterlimit:4;" d="M 192.04337 153.9927 C 192.04337 150.763533 194.280586 149.826033 194.280586 149.826033 C 194.280586 149.826033 196.624336 150.763533 196.624336 153.9927 L 192.04337 153.9927 " transform="matrix(-0.0366667,0,0,0.0375,17.592371,1.736992)"/>
<path style="fill-rule:nonzero;fill:rgb(100%,100%,0%);fill-opacity:1;stroke-width:0.5;stroke-linecap:butt;stroke-linejoin:miter;stroke:rgb(0%,0%,0%);stroke-opacity:1;stroke-miterlimit:4;" d="M 186.183995 145.034367 L 202.483711 145.034367 C 202.803314 145.034367 203.122916 145.346867 203.122916 145.763533 C 203.122916 146.1802 202.803314 146.4927 202.483711 146.4927 L 186.183995 146.4927 C 185.864393 146.4927 185.544791 146.1802 185.544791 145.763533 C 185.544791 145.346867 185.864393 145.034367 186.183995 145.034367 Z M 186.183995 145.034367 " transform="matrix(-0.0366667,0,0,0.0375,17.592371,1.736992)"/>
<path style="fill-rule:nonzero;fill:rgb(100%,100%,0%);fill-opacity:1;stroke-width:0.5;stroke-linecap:butt;stroke-linejoin:miter;stroke:rgb(0%,0%,0%);stroke-opacity:1;stroke-miterlimit:4;" d="M 186.503598 146.4927 L 202.057575 146.4927 C 202.377177 146.4927 202.69678 146.8052 202.69678 147.221867 C 202.69678 147.534367 202.377177 147.846867 202.057575 147.846867 L 186.503598 147.846867 C 186.183995 147.846867 185.970927 147.534367 185.970927 147.221867 C 185.970927 146.8052 186.183995 146.4927 186.503598 146.4927 Z M 186.503598 146.4927 " transform="matrix(-0.0366667,0,0,0.0375,17.592371,1.736992)"/>
<path style="fill-rule:nonzero;fill:rgb(100%,100%,0%);fill-opacity:1;stroke-width:0.5;stroke-linecap:butt;stroke-linejoin:miter;stroke:rgb(0%,0%,0%);stroke-opacity:1;stroke-miterlimit:4;" d="M 191.617234 135.8677 L 192.789109 135.8677 L 192.789109 136.8052 L 193.641382 136.8052 L 193.641382 135.8677 L 194.919791 135.8677 L 194.919791 136.8052 L 195.878598 136.8052 L 195.878598 135.8677 L 197.157007 135.8677 L 197.050473 137.846867 C 197.050473 138.159367 196.837405 138.3677 196.517802 138.3677 L 192.149905 138.3677 C 191.830302 138.3677 191.617234 138.159367 191.617234 137.846867 Z M 191.617234 135.8677 " transform="matrix(-0.0366667,0,0,0.0375,17.592371,1.736992)"/>
<path style="fill-rule:nonzero;fill:rgb(100%,100%,0%);fill-opacity:1;stroke-width:0.5;stroke-linecap:butt;stroke-linejoin:miter;stroke:rgb(0%,0%,0%);stroke-opacity:1;stroke-miterlimit:4;" d="M 196.1982 138.576033 L 196.517802 145.034367 L 192.149905 145.034367 L 192.469507 138.576033 L 196.1982 138.576033 " transform="matrix(-0.0366667,0,0,0.0375,17.592371,1.736992)"/>
<path style="fill-rule:nonzero;fill:rgb(100%,100%,0%);fill-opacity:1;stroke-width:0.5;stroke-linecap:butt;stroke-linejoin:miter;stroke:rgb(0%,0%,0%);stroke-opacity:1;stroke-miterlimit:4;" d="M 190.97803 141.596867 L 191.084564 145.034367 L 186.929734 145.034367 L 187.036268 141.596867 Z M 190.97803 141.596867 " transform="matrix(-0.0366667,0,0,0.0375,17.592371,1.736992)"/>
<path style="fill-rule:nonzero;fill:rgb(100%,100%,0%);fill-opacity:1;stroke-width:0.5;stroke-linecap:butt;stroke-linejoin:miter;stroke:rgb(0%,0%,0%);stroke-opacity:1;stroke-miterlimit:4;" d="M 190.915905 141.596867 L 191.022439 145.034367 L 186.974143 145.034367 L 187.080677 141.596867 Z M 190.915905 141.596867 " transform="matrix(-0.0366667,0,0,0.0375,17.203375,1.736992)"/>
<path style="fill-rule:nonzero;fill:rgb(100%,100%,0%);fill-opacity:1;stroke-width:0.5;stroke-linecap:butt;stroke-linejoin:miter;stroke:rgb(0%,0%,0%);stroke-opacity:1;stroke-miterlimit:4;" d="M 186.29053 138.9927 L 187.462405 138.9927 L 187.462405 139.9302 L 188.421211 139.9302 L 188.421211 138.9927 L 189.593086 138.9927 L 189.593086 139.9302 L 190.445359 139.9302 L 190.445359 138.9927 L 191.723768 138.9927 L 191.723768 141.076033 C 191.723768 141.388533 191.5107 141.596867 191.191098 141.596867 L 186.8232 141.596867 C 186.610132 141.596867 186.29053 141.284367 186.29053 141.076033 Z M 186.29053 138.9927 " transform="matrix(-0.0366667,0,0,0.0375,17.592371,1.736992)"/>
<path style="fill-rule:nonzero;fill:rgb(100%,100%,0%);fill-opacity:1;stroke-width:0.5;stroke-linecap:butt;stroke-linejoin:miter;stroke:rgb(0%,0%,0%);stroke-opacity:1;stroke-miterlimit:4;" d="M 186.334939 138.9927 L 187.506814 138.9927 L 187.506814 139.9302 L 188.359086 139.9302 L 188.359086 138.9927 L 189.637495 138.9927 L 189.637495 139.9302 L 190.489768 139.9302 L 190.489768 138.9927 L 191.768177 138.9927 L 191.661643 141.076033 C 191.661643 141.388533 191.448575 141.596867 191.128973 141.596867 L 186.867609 141.596867 C 186.548007 141.596867 186.334939 141.284367 186.334939 141.076033 Z M 186.334939 138.9927 " transform="matrix(-0.0366667,0,0,0.0375,17.203375,1.736992)"/>
<path style=" stroke:none;fill-rule:nonzero;fill:rgb(0%,0%,0%);fill-opacity:1;" d="M 10.484375 7.011719 C 10.484375 6.988281 10.449219 6.984375 10.449219 7.011719 L 10.449219 7.066406 L 10.484375 7.066406 L 10.484375 7.011719 "/>
<path style=" stroke:none;fill-rule:nonzero;fill:rgb(0%,0%,0%);fill-opacity:1;" d="M 10.679688 7.09375 C 10.679688 7.070312 10.648438 7.070312 10.648438 7.09375 L 10.648438 7.136719 L 10.679688 7.136719 L 10.679688 7.09375 "/>
<path style=" stroke:none;fill-rule:nonzero;fill:rgb(0%,0%,0%);fill-opacity:1;" d="M 10.289062 7.09375 C 10.289062 7.070312 10.257812 7.070312 10.257812 7.09375 L 10.257812 7.136719 L 10.289062 7.136719 L 10.289062 7.09375 "/>
<path style=" stroke:none;fill-rule:nonzero;fill:rgb(100%,100%,0%);fill-opacity:1;" d="M 9.957031 9.335938 C 10.097656 9.1875 10.03125 9.046875 10.027344 9.046875 C 10.027344 9.046875 9.882812 8.972656 9.742188 9.117188 L 9.957031 9.335938 "/>
<path style="fill-rule:nonzero;fill:rgb(100%,100%,0%);fill-opacity:1;stroke-width:0.5;stroke-linecap:butt;stroke-linejoin:miter;stroke:rgb(0%,0%,0%);stroke-opacity:1;stroke-miterlimit:4;" d="M 186.854357 147.662899 L 186.158843 154.058598 L 190.255249 154.044584 C 190.288963 148.756436 194.304561 147.921862 194.304561 147.921862 C 194.453542 147.924061 198.261175 149.097592 198.448061 154.016558 L 202.619532 154.078141 L 201.825235 147.660448 Z M 186.854357 147.662899 " transform="matrix(-0.0258357,-0.0266098,-0.0260185,0.0264228,18.888225,10.316587)"/>
<path style="fill-rule:nonzero;fill:rgb(100%,100%,0%);fill-opacity:1;stroke-width:0.5;stroke-linecap:butt;stroke-linejoin:miter;stroke:rgb(0%,0%,0%);stroke-opacity:1;stroke-miterlimit:4;" d="M 185.86088 154.054199 L 202.768513 154.08034 C 203.140391 154.011342 203.441799 154.462719 203.445245 154.909698 C 203.447543 155.207684 203.153026 155.650264 202.779999 155.570269 L 185.798451 155.617525 C 185.500488 155.613126 185.200229 155.310741 185.196783 154.863763 C 185.193337 154.416784 185.489002 154.123197 185.86088 154.054199 Z M 185.86088 154.054199 " transform="matrix(-0.0258357,-0.0266098,-0.0260185,0.0264228,18.888225,10.316587)"/>
<path style="fill-rule:nonzero;fill:rgb(100%,100%,0%);fill-opacity:1;stroke-width:0.5;stroke-linecap:butt;stroke-linejoin:miter;stroke:rgb(0%,0%,0%);stroke-opacity:1;stroke-miterlimit:4;" d="M 192.043022 154.070977 C 192.091668 150.719736 194.244428 149.783173 194.244428 149.783173 C 194.244428 149.783173 196.635018 150.712321 196.660288 153.990165 L 192.043022 154.070977 " transform="matrix(-0.0258357,-0.0266098,-0.0260185,0.0264228,18.888225,10.316587)"/>
<path style="fill-rule:nonzero;fill:rgb(100%,100%,0%);fill-opacity:1;stroke-width:0.5;stroke-linecap:butt;stroke-linejoin:miter;stroke:rgb(0%,0%,0%);stroke-opacity:1;stroke-miterlimit:4;" d="M 186.163841 145.045626 L 202.475549 145.06297 C 202.773511 145.067368 203.07377 145.369753 203.077216 145.816732 C 203.079514 146.114718 202.783849 146.408305 202.41197 146.477303 L 186.249243 146.462159 C 185.8023 146.45556 185.651022 146.155375 185.573659 145.781793 C 185.570214 145.334815 185.865878 145.041228 186.163841 145.045626 Z M 186.163841 145.045626 " transform="matrix(-0.0258357,-0.0266098,-0.0260185,0.0264228,18.888225,10.316587)"/>
<path style="fill-rule:nonzero;fill:rgb(100%,100%,0%);fill-opacity:1;stroke-width:0.5;stroke-linecap:butt;stroke-linejoin:miter;stroke:rgb(0%,0%,0%);stroke-opacity:1;stroke-miterlimit:4;" d="M 186.547205 146.466557 L 202.114008 146.472904 C 202.41197 146.477303 202.71223 146.779687 202.640611 147.15107 C 202.717973 147.524652 202.422308 147.818239 202.050429 147.887237 L 186.483627 147.88089 C 186.185665 147.876492 185.959322 147.50071 185.957024 147.202724 C 185.953578 146.755746 186.249243 146.462159 186.547205 146.466557 Z M 186.547205 146.466557 " transform="matrix(-0.0258357,-0.0266098,-0.0260185,0.0264228,18.888225,10.316587)"/>
<path style="fill-rule:nonzero;fill:rgb(100%,100%,0%);fill-opacity:1;stroke-width:0.5;stroke-linecap:butt;stroke-linejoin:miter;stroke:rgb(0%,0%,0%);stroke-opacity:1;stroke-miterlimit:4;" d="M 191.604926 135.889443 L 192.796775 135.907038 L 192.803667 136.800996 L 193.697553 136.814192 L 193.690662 135.920234 L 194.956427 135.864433 L 194.963318 136.75839 L 195.857205 136.771587 L 195.850313 135.877629 L 197.116078 135.821827 L 197.132159 137.907728 C 197.134457 138.205714 196.837643 138.350308 196.539681 138.345909 L 192.145312 138.355524 C 191.84735 138.351125 191.548239 138.197734 191.545942 137.899748 Z M 191.604926 135.889443 " transform="matrix(-0.0258357,-0.0266098,-0.0260185,0.0264228,18.888225,10.316587)"/>
<path style="fill-rule:nonzero;fill:rgb(100%,100%,0%);fill-opacity:1;stroke-width:0.5;stroke-linecap:butt;stroke-linejoin:miter;stroke:rgb(0%,0%,0%);stroke-opacity:1;stroke-miterlimit:4;" d="M 196.168951 138.5639 L 196.442388 145.048391 L 192.121936 144.984609 L 192.444423 138.508916 L 196.168951 138.5639 " transform="matrix(-0.0258357,-0.0266098,-0.0260185,0.0264228,18.888225,10.316587)"/>
<path style="fill-rule:nonzero;fill:rgb(100%,100%,0%);fill-opacity:1;stroke-width:0.5;stroke-linecap:butt;stroke-linejoin:miter;stroke:rgb(0%,0%,0%);stroke-opacity:1;stroke-miterlimit:4;" d="M 190.903669 141.540177 L 191.005152 145.04261 L 186.908746 145.056623 L 187.105225 141.558589 Z M 190.903669 141.540177 " transform="matrix(-0.0258357,-0.0266098,-0.0260185,0.0264228,18.888225,10.316587)"/>
<path style="fill-rule:nonzero;fill:rgb(100%,100%,0%);fill-opacity:1;stroke-width:0.5;stroke-linecap:butt;stroke-linejoin:miter;stroke:rgb(0%,0%,0%);stroke-opacity:1;stroke-miterlimit:4;" d="M 190.946243 141.622936 L 191.121643 145.051973 L 186.950172 144.99039 L 187.072735 141.565752 Z M 190.946243 141.622936 " transform="matrix(-0.0258357,-0.0266098,-0.0260185,0.0264228,18.614134,10.034283)"/>
<path style="fill-rule:nonzero;fill:rgb(100%,100%,0%);fill-opacity:1;stroke-width:0.5;stroke-linecap:butt;stroke-linejoin:miter;stroke:rgb(0%,0%,0%);stroke-opacity:1;stroke-miterlimit:4;" d="M 186.340793 139.014712 L 187.532641 139.032308 L 187.539533 139.926265 L 188.358355 139.863865 L 188.426528 139.045504 L 189.618377 139.063099 L 189.625269 139.957056 L 190.44409 139.894657 L 190.437199 139.000699 L 191.778029 139.020494 L 191.719045 141.030798 C 191.721342 141.328784 191.499593 141.548974 191.201631 141.544576 L 186.807263 141.55419 C 186.5093 141.549791 186.284106 141.323003 186.281809 141.025017 Z M 186.340793 139.014712 " transform="matrix(-0.0258357,-0.0266098,-0.0260185,0.0264228,18.888225,10.316587)"/>
<path style="fill-rule:nonzero;fill:rgb(100%,100%,0%);fill-opacity:1;stroke-width:0.5;stroke-linecap:butt;stroke-linejoin:miter;stroke:rgb(0%,0%,0%);stroke-opacity:1;stroke-miterlimit:4;" d="M 186.308302 139.021876 L 187.500151 139.039471 L 187.507043 139.933429 L 188.40093 139.946625 L 188.394038 139.052667 L 189.585887 139.070262 L 189.592778 139.96422 L 190.486665 139.977416 L 190.479773 139.083459 L 191.745538 139.027657 L 191.686554 141.037962 C 191.688852 141.335948 191.467103 141.556138 191.169141 141.551739 L 186.923754 141.563553 C 186.625791 141.559154 186.251616 141.330166 186.249318 141.032181 Z M 186.308302 139.021876 " transform="matrix(-0.0258357,-0.0266098,-0.0260185,0.0264228,18.614134,10.034283)"/>
<path style=" stroke:none;fill-rule:nonzero;fill:rgb(0%,0%,0%);fill-opacity:1;" d="M 10.21875 8.871094 C 10.238281 8.855469 10.214844 8.832031 10.199219 8.847656 L 10.15625 8.890625 L 10.179688 8.914062 L 10.21875 8.871094 "/>
<path style=" stroke:none;fill-rule:nonzero;fill:rgb(0%,0%,0%);fill-opacity:1;" d="M 10.300781 9.074219 C 10.316406 9.058594 10.292969 9.035156 10.277344 9.050781 L 10.246094 9.082031 L 10.269531 9.105469 L 10.300781 9.074219 "/>
<path style=" stroke:none;fill-rule:nonzero;fill:rgb(0%,0%,0%);fill-opacity:1;" d="M 10.023438 8.789062 C 10.039062 8.773438 10.019531 8.75 10.003906 8.769531 L 9.972656 8.800781 L 9.992188 8.820312 L 10.023438 8.789062 "/>
<path style=" stroke:none;fill-rule:nonzero;fill:rgb(0%,20%,60%);fill-opacity:1;" d="M 8.53125 7.589844 C 8.53125 7.671875 8.5625 7.75 8.609375 7.804688 C 8.660156 7.859375 8.730469 7.894531 8.804688 7.894531 C 8.882812 7.894531 8.949219 7.859375 9 7.804688 C 9.050781 7.75 9.082031 7.675781 9.082031 7.589844 L 9.082031 7.1875 L 8.53125 7.1875 L 8.53125 7.589844 "/>
<path style=" stroke:none;fill-rule:nonzero;fill:rgb(100%,100%,100%);fill-opacity:1;" d="M 8.710938 7.339844 C 8.710938 7.371094 8.6875 7.394531 8.65625 7.394531 C 8.625 7.394531 8.601562 7.371094 8.601562 7.339844 C 8.601562 7.308594 8.625 7.285156 8.65625 7.285156 C 8.6875 7.285156 8.710938 7.308594 8.710938 7.339844 Z M 8.710938 7.339844 "/>
<path style=" stroke:none;fill-rule:nonzero;fill:rgb(100%,100%,100%);fill-opacity:1;" d="M 9.015625 7.339844 C 9.015625 7.371094 8.992188 7.394531 8.960938 7.394531 C 8.929688 7.394531 8.90625 7.371094 8.90625 7.339844 C 8.90625 7.308594 8.929688 7.285156 8.960938 7.285156 C 8.992188 7.285156 9.015625 7.308594 9.015625 7.339844 Z M 9.015625 7.339844 "/>
<path style=" stroke:none;fill-rule:nonzero;fill:rgb(100%,100%,100%);fill-opacity:1;" d="M 8.863281 7.488281 C 8.863281 7.519531 8.839844 7.546875 8.808594 7.546875 C 8.777344 7.546875 8.753906 7.519531 8.753906 7.488281 C 8.753906 7.460938 8.777344 7.433594 8.808594 7.433594 C 8.839844 7.433594 8.863281 7.460938 8.863281 7.488281 Z M 8.863281 7.488281 "/>
<path style=" stroke:none;fill-rule:nonzero;fill:rgb(100%,100%,100%);fill-opacity:1;" d="M 8.710938 7.648438 C 8.710938 7.675781 8.6875 7.703125 8.65625 7.703125 C 8.625 7.703125 8.601562 7.675781 8.601562 7.648438 C 8.601562 7.617188 8.625 7.589844 8.65625 7.589844 C 8.6875 7.589844 8.710938 7.617188 8.710938 7.648438 Z M 8.710938 7.648438 "/>
<path style=" stroke:none;fill-rule:nonzero;fill:rgb(100%,100%,100%);fill-opacity:1;" d="M 9.015625 7.644531 C 9.015625 7.675781 8.992188 7.703125 8.960938 7.703125 C 8.929688 7.703125 8.90625 7.675781 8.90625 7.644531 C 8.90625 7.617188 8.929688 7.589844 8.960938 7.589844 C 8.992188 7.589844 9.015625 7.617188 9.015625 7.644531 Z M 9.015625 7.644531 "/>
<path style=" stroke:none;fill-rule:nonzero;fill:rgb(0%,20%,60%);fill-opacity:1;" d="M 8.53125 6.613281 C 8.53125 6.699219 8.5625 6.773438 8.609375 6.828125 C 8.660156 6.882812 8.730469 6.917969 8.804688 6.917969 C 8.882812 6.917969 8.949219 6.882812 9 6.828125 C 9.050781 6.773438 9.082031 6.699219 9.082031 6.613281 L 9.082031 6.210938 L 8.53125 6.210938 L 8.53125 6.613281 "/>
<path style=" stroke:none;fill-rule:nonzero;fill:rgb(100%,100%,100%);fill-opacity:1;" d="M 8.710938 6.363281 C 8.710938 6.394531 8.6875 6.421875 8.65625 6.421875 C 8.625 6.421875 8.601562 6.394531 8.601562 6.363281 C 8.601562 6.332031 8.625 6.308594 8.65625 6.308594 C 8.6875 6.308594 8.710938 6.332031 8.710938 6.363281 Z M 8.710938 6.363281 "/>
<path style=" stroke:none;fill-rule:nonzero;fill:rgb(100%,100%,100%);fill-opacity:1;" d="M 9.015625 6.363281 C 9.015625 6.394531 8.992188 6.421875 8.960938 6.421875 C 8.929688 6.421875 8.90625 6.394531 8.90625 6.363281 C 8.90625 6.332031 8.929688 6.308594 8.960938 6.308594 C 8.992188 6.308594 9.015625 6.332031 9.015625 6.363281 Z M 9.015625 6.363281 "/>
<path style=" stroke:none;fill-rule:nonzero;fill:rgb(100%,100%,100%);fill-opacity:1;" d="M 8.863281 6.515625 C 8.863281 6.546875 8.839844 6.570312 8.808594 6.570312 C 8.777344 6.570312 8.753906 6.546875 8.753906 6.515625 C 8.753906 6.484375 8.777344 6.457031 8.808594 6.457031 C 8.839844 6.457031 8.863281 6.484375 8.863281 6.515625 Z M 8.863281 6.515625 "/>
<path style=" stroke:none;fill-rule:nonzero;fill:rgb(100%,100%,100%);fill-opacity:1;" d="M 8.710938 6.671875 C 8.710938 6.703125 8.6875 6.726562 8.65625 6.726562 C 8.625 6.726562 8.601562 6.703125 8.601562 6.671875 C 8.601562 6.640625 8.625 6.617188 8.65625 6.617188 C 8.6875 6.617188 8.710938 6.640625 8.710938 6.671875 Z M 8.710938 6.671875 "/>
<path style=" stroke:none;fill-rule:nonzero;fill:rgb(100%,100%,100%);fill-opacity:1;" d="M 9.015625 6.671875 C 9.015625 6.703125 8.992188 6.726562 8.960938 6.726562 C 8.929688 6.726562 8.90625 6.703125 8.90625 6.671875 C 8.90625 6.640625 8.929688 6.613281 8.960938 6.613281 C 8.992188 6.613281 9.015625 6.640625 9.015625 6.671875 Z M 9.015625 6.671875 "/>
<path style=" stroke:none;fill-rule:nonzero;fill:rgb(0%,20%,60%);fill-opacity:1;" d="M 7.765625 7.589844 C 7.765625 7.671875 7.796875 7.75 7.847656 7.804688 C 7.898438 7.859375 7.96875 7.894531 8.042969 7.894531 C 8.117188 7.894531 8.1875 7.859375 8.238281 7.804688 C 8.285156 7.75 8.316406 7.675781 8.316406 7.589844 L 8.316406 7.1875 L 7.769531 7.1875 L 7.765625 7.589844 "/>
<path style=" stroke:none;fill-rule:nonzero;fill:rgb(100%,100%,100%);fill-opacity:1;" d="M 7.949219 7.339844 C 7.949219 7.371094 7.921875 7.394531 7.894531 7.394531 C 7.863281 7.394531 7.839844 7.371094 7.839844 7.339844 C 7.839844 7.308594 7.863281 7.285156 7.894531 7.285156 C 7.921875 7.285156 7.949219 7.308594 7.949219 7.339844 Z M 7.949219 7.339844 "/>
<path style=" stroke:none;fill-rule:nonzero;fill:rgb(100%,100%,100%);fill-opacity:1;" d="M 8.253906 7.339844 C 8.253906 7.371094 8.226562 7.394531 8.199219 7.394531 C 8.167969 7.394531 8.144531 7.371094 8.144531 7.339844 C 8.144531 7.308594 8.167969 7.285156 8.199219 7.285156 C 8.226562 7.285156 8.253906 7.308594 8.253906 7.339844 Z M 8.253906 7.339844 "/>
<path style=" stroke:none;fill-rule:nonzero;fill:rgb(100%,100%,100%);fill-opacity:1;" d="M 8.101562 7.488281 C 8.101562 7.519531 8.074219 7.546875 8.046875 7.546875 C 8.015625 7.546875 7.992188 7.519531 7.992188 7.488281 C 7.992188 7.460938 8.015625 7.433594 8.046875 7.433594 C 8.074219 7.433594 8.101562 7.460938 8.101562 7.488281 Z M 8.101562 7.488281 "/>
<path style=" stroke:none;fill-rule:nonzero;fill:rgb(100%,100%,100%);fill-opacity:1;" d="M 7.949219 7.648438 C 7.949219 7.675781 7.921875 7.703125 7.894531 7.703125 C 7.863281 7.703125 7.839844 7.675781 7.839844 7.648438 C 7.839844 7.617188 7.863281 7.589844 7.894531 7.589844 C 7.921875 7.589844 7.949219 7.617188 7.949219 7.648438 Z M 7.949219 7.648438 "/>
<path style=" stroke:none;fill-rule:nonzero;fill:rgb(100%,100%,100%);fill-opacity:1;" d="M 8.253906 7.644531 C 8.253906 7.675781 8.226562 7.703125 8.199219 7.703125 C 8.167969 7.703125 8.144531 7.675781 8.144531 7.644531 C 8.144531 7.617188 8.167969 7.589844 8.199219 7.589844 C 8.226562 7.589844 8.253906 7.617188 8.253906 7.644531 Z M 8.253906 7.644531 "/>
<path style=" stroke:none;fill-rule:nonzero;fill:rgb(0%,20%,60%);fill-opacity:1;" d="M 9.289062 7.589844 C 9.289062 7.671875 9.320312 7.75 9.371094 7.804688 C 9.421875 7.859375 9.492188 7.894531 9.566406 7.894531 C 9.640625 7.894531 9.710938 7.859375 9.761719 7.804688 C 9.808594 7.75 9.839844 7.675781 9.839844 7.589844 L 9.839844 7.1875 L 9.292969 7.1875 L 9.289062 7.589844 "/>
<path style=" stroke:none;fill-rule:nonzero;fill:rgb(100%,100%,100%);fill-opacity:1;" d="M 9.472656 7.339844 C 9.472656 7.371094 9.445312 7.394531 9.417969 7.394531 C 9.386719 7.394531 9.363281 7.371094 9.363281 7.339844 C 9.363281 7.308594 9.386719 7.285156 9.417969 7.285156 C 9.445312 7.285156 9.472656 7.308594 9.472656 7.339844 Z M 9.472656 7.339844 "/>
<path style=" stroke:none;fill-rule:nonzero;fill:rgb(100%,100%,100%);fill-opacity:1;" d="M 9.777344 7.339844 C 9.777344 7.371094 9.75 7.394531 9.722656 7.394531 C 9.691406 7.394531 9.667969 7.371094 9.667969 7.339844 C 9.667969 7.308594 9.691406 7.285156 9.722656 7.285156 C 9.75 7.285156 9.777344 7.308594 9.777344 7.339844 Z M 9.777344 7.339844 "/>
<path style=" stroke:none;fill-rule:nonzero;fill:rgb(100%,100%,100%);fill-opacity:1;" d="M 9.625 7.488281 C 9.625 7.519531 9.597656 7.546875 9.570312 7.546875 C 9.539062 7.546875 9.515625 7.519531 9.515625 7.488281 C 9.515625 7.460938 9.539062 7.433594 9.570312 7.433594 C 9.597656 7.433594 9.625 7.460938 9.625 7.488281 Z M 9.625 7.488281 "/>
<path style=" stroke:none;fill-rule:nonzero;fill:rgb(100%,100%,100%);fill-opacity:1;" d="M 9.472656 7.648438 C 9.472656 7.675781 9.445312 7.703125 9.417969 7.703125 C 9.386719 7.703125 9.363281 7.675781 9.363281 7.648438 C 9.363281 7.617188 9.386719 7.589844 9.417969 7.589844 C 9.445312 7.589844 9.472656 7.617188 9.472656 7.648438 Z M 9.472656 7.648438 "/>
<path style=" stroke:none;fill-rule:nonzero;fill:rgb(100%,100%,100%);fill-opacity:1;" d="M 9.777344 7.644531 C 9.777344 7.675781 9.75 7.703125 9.722656 7.703125 C 9.691406 7.703125 9.667969 7.675781 9.667969 7.644531 C 9.667969 7.617188 9.691406 7.589844 9.722656 7.589844 C 9.75 7.589844 9.777344 7.617188 9.777344 7.644531 Z M 9.777344 7.644531 "/>
<path style=" stroke:none;fill-rule:nonzero;fill:rgb(0%,20%,60%);fill-opacity:1;" d="M 8.53125 8.558594 C 8.53125 8.640625 8.5625 8.714844 8.609375 8.769531 C 8.660156 8.824219 8.730469 8.859375 8.804688 8.859375 C 8.882812 8.859375 8.949219 8.824219 9 8.769531 C 9.050781 8.714844 9.082031 8.640625 9.082031 8.558594 L 9.082031 8.152344 L 8.53125 8.152344 L 8.53125 8.558594 "/>
<path style=" stroke:none;fill-rule:nonzero;fill:rgb(100%,100%,100%);fill-opacity:1;" d="M 8.710938 8.308594 C 8.710938 8.335938 8.6875 8.363281 8.65625 8.363281 C 8.625 8.363281 8.601562 8.335938 8.601562 8.308594 C 8.601562 8.277344 8.625 8.25 8.65625 8.25 C 8.6875 8.25 8.710938 8.277344 8.710938 8.308594 Z M 8.710938 8.308594 "/>
<path style=" stroke:none;fill-rule:nonzero;fill:rgb(100%,100%,100%);fill-opacity:1;" d="M 9.015625 8.308594 C 9.015625 8.339844 8.992188 8.363281 8.960938 8.363281 C 8.929688 8.363281 8.90625 8.339844 8.90625 8.308594 C 8.90625 8.277344 8.929688 8.25 8.960938 8.25 C 8.992188 8.25 9.015625 8.277344 9.015625 8.308594 Z M 9.015625 8.308594 "/>
<path style=" stroke:none;fill-rule:nonzero;fill:rgb(100%,100%,100%);fill-opacity:1;" d="M 8.863281 8.457031 C 8.863281 8.488281 8.839844 8.511719 8.808594 8.511719 C 8.777344 8.511719 8.753906 8.488281 8.753906 8.457031 C 8.753906 8.425781 8.777344 8.402344 8.808594 8.402344 C 8.839844 8.402344 8.863281 8.425781 8.863281 8.457031 Z M 8.863281 8.457031 "/>
<path style=" stroke:none;fill-rule:nonzero;fill:rgb(100%,100%,100%);fill-opacity:1;" d="M 8.710938 8.613281 C 8.710938 8.644531 8.6875 8.667969 8.65625 8.667969 C 8.625 8.667969 8.601562 8.644531 8.601562 8.613281 C 8.601562 8.582031 8.625 8.558594 8.65625 8.558594 C 8.6875 8.558594 8.710938 8.582031 8.710938 8.613281 Z M 8.710938 8.613281 "/>
<path style=" stroke:none;fill-rule:nonzero;fill:rgb(100%,100%,100%);fill-opacity:1;" d="M 9.015625 8.613281 C 9.015625 8.644531 8.992188 8.667969 8.960938 8.667969 C 8.929688 8.667969 8.90625 8.644531 8.90625 8.613281 C 8.90625 8.582031 8.929688 8.558594 8.960938 8.558594 C 8.992188 8.558594 9.015625 8.582031 9.015625 8.613281 Z M 9.015625 8.613281 "/>
</g>
</svg>
